<?xml version="1.0" encoding="UTF-8" standalone="no"?><!DOCTYPE svg PUBLIC "-//W3C//DTD SVG 1.1//EN" "http://www.w3.org/Graphics/SVG/1.1/DTD/svg11.dtd"><svg width="100%" height="100%" viewBox="0 0 20834 20834" version="1.1" xmlns="http://www.w3.org/2000/svg" xmlns:xlink="http://www.w3.org/1999/xlink" xml:space="preserve" xmlns:serif="http://www.serif.com/" style="fill-rule:evenodd;clip-rule:evenodd;stroke-linejoin:round;stroke-miterlimit:2;"><path d="M14366.3,1076.39l0.087,27.387c0.695,219.879 1.498,439.757 2.409,659.636c0.434,106.315 0.825,212.651 1.172,318.988c0.282,92.665 0.629,185.33 1.042,277.973c0.217,49.089 0.412,98.156 0.52,147.223c0.109,46.18 0.304,92.361 0.565,138.541c0.087,16.971 0.13,33.92 0.152,50.89c0.043,23.134 0.152,46.267 0.325,69.401l-0.065,20.399c0.369,35.309 2.561,63.933 19.835,95.118c18.359,12.434 37.522,23.459 57.509,33.094l17.665,9.006c28.906,14.67 58.051,28.82 87.218,42.969c108.333,52.821 211.458,113.824 315.039,175.347l44.314,26.107c163.607,96.788 323.546,199.175 478.516,309.245c34.548,24.544 69.531,48.394 104.644,72.113c113.368,76.606 220.963,160.027 328.125,245.053c39.496,31.206 80.143,60.46 121.527,89.149l16.624,13.542l-0,17.361l14.062,5.946c27.344,15.104 49.827,34.961 73.286,55.36c15.191,13.064 30.403,26.129 45.638,39.171c20.659,17.513 41.753,34.462 62.869,51.432c43.316,35.222 84.331,72.44 125.152,110.482c19.14,17.643 38.563,34.983 58.29,51.975c36.024,31.467 71.137,63.802 105.924,96.615l19.184,18.055c65.668,62.175 129.861,125.803 193.728,189.844c19.358,19.401 38.759,38.78 58.203,58.138c12.587,12.587 25.152,25.173 37.739,37.782l17.209,17.144c32.921,33.116 64.562,67.426 94.879,102.93c14.214,16.081 29.036,31.185 44.357,46.202c26.433,26.042 50.955,53.255 75.131,81.38c11.61,13.347 23.372,26.541 35.286,39.605l19.249,21.159l17.882,19.466l13.043,16.341l-0,17.362l17.361,-0c11.936,13.085 23.22,26.779 34.18,40.69l32.335,40.451c19.531,24.132 39.735,47.7 59.895,71.311c150.717,177.43 290.647,365.256 423.59,556.293c15.907,22.787 31.879,45.508 47.917,68.208c68.988,98.112 135.633,197.222 198.611,299.327c9.483,15.386 19.032,30.729 28.645,46.05c37.414,60.135 73.525,120.986 109.614,181.923l14.388,24.284c24.805,41.927 48.98,84.201 72.526,126.823c12.565,22.656 25.391,45.139 38.195,67.643c178.06,314.149 331.423,639.931 467.339,974.284l9.288,22.83c41.428,101.931 79.536,204.644 115.148,308.724c8.225,23.936 16.58,47.808 25,71.679c14.062,40.191 28.016,80.426 41.884,120.682c5.902,17.057 11.805,34.114 17.73,51.172c40.299,116.341 75.369,233.203 106.467,352.343c9.461,36.263 19.466,72.353 30.034,108.312c39.844,135.677 69.032,272.352 96.485,410.938c8.507,42.773 17.882,85.286 27.777,127.756c75.087,331.597 117.579,671.354 144.532,1009.98c3.038,37.956 6.402,75.868 9.765,113.781c16.407,198.502 20.248,396.853 19.922,595.963c-0.043,30.317 -0.021,60.656 0.022,90.972c0.304,221.745 -5.903,442.318 -25.586,663.26l-2.279,26.345c-13.932,159.289 -30.338,318.099 -51.41,476.585l-2.387,17.903c-41.255,310.33 -102.843,615.647 -175.847,919.987c-3.624,15.083 -7.205,30.165 -10.785,45.269c-45.877,193.034 -105.339,382.14 -166.884,570.66l-8.442,26.042c-153.993,474.414 -351.91,937.261 -588.064,1376.65c-27.517,51.649 -54.254,103.733 -81.163,155.708l-12.717,24.457l-11.285,21.745c-10.135,18.663 -10.135,18.663 -27.496,44.705c26.042,-9.028 52.084,-18.056 78.125,-27.127l23.72,-8.225c37.825,-13.194 75.434,-26.649 112.695,-41.341l18.837,-7.4c11.61,-4.601 23.177,-9.288 34.722,-14.084c23.069,-9.093 42.578,-14.649 67.448,-14.909c20.356,8.919 20.356,8.919 39.909,30.859c6.814,9.766 13.498,19.64 20.052,29.601c3.646,5.317 7.314,10.655 11.068,16.146c12.174,17.86 24.197,35.807 36.133,53.841l26.649,39.778c17.969,26.867 35.872,53.776 53.711,80.73c22.396,33.615 45.247,66.905 68.598,99.869c54.514,77.431 108.073,155.361 158.464,235.547c17.903,27.973 36.979,55.013 56.141,82.14c23.763,33.854 47.114,67.969 70.464,102.127l14.54,21.245c43.078,63.065 86.068,126.172 129.08,189.28c32.314,47.439 64.735,94.813 97.266,142.122l11.371,16.537c20.096,29.21 40.213,58.376 60.374,87.521l13.129,19.033c8.268,11.957 16.536,23.915 24.805,35.872c44.357,64.301 44.357,64.301 57.422,89.518l-0,34.722c-14.28,6.728 -28.559,13.434 -42.861,20.074l-24.11,11.285c-20.746,8.789 -41.819,16.667 -63.238,23.633c-55.881,18.207 -110.59,39.583 -165.473,60.568l-83.876,31.966c-52.3,19.879 -104.709,39.519 -157.205,58.898c-19.032,7.357 -37.89,15.126 -56.575,23.351c-21.984,9.31 -44.314,17.643 -67.014,25.043c-45.03,14.866 -89.475,31.12 -133.919,47.656l-25.933,9.614c-27.54,10.243 -55.057,20.508 -82.574,30.794l-28.429,10.612c-113.585,42.513 -225.803,86.263 -336.241,136.394c-336.09,152.17 -706.988,235.85 -1068.01,305.425c-15.885,3.103 -31.749,6.25 -47.612,9.44c-109.072,21.701 -217.231,37.478 -327.995,46.832l-28.689,2.517c-47.635,4.188 -95.226,8.008 -142.926,11.22c-93.251,4.557 -93.251,4.557 -178.863,37.326c-23.459,18.967 -43.424,38.39 -63.454,60.894c-9.484,8.702 -19.054,17.296 -28.755,25.781l-23.329,21.962c-39.713,36.979 -80.664,71.832 -122.96,105.86c-21.983,17.925 -43.75,36.132 -65.278,54.6c-63.172,53.993 -128.016,105.512 -193.706,156.38l-14.801,11.502c-63.628,49.436 -128.125,97.678 -193.533,144.748l-35.807,26.042c-127.886,92.947 -257.639,182.292 -390.82,267.491c-13.715,8.789 -27.431,17.6 -41.103,26.433c-282.638,181.488 -575.933,348.546 -877.756,496.007l-20.876,10.199c-99.067,48.242 -199.371,93.729 -300.912,136.459c-29.883,12.673 -59.548,25.803 -89.019,39.409c-449.349,205.426 -934.852,358.247 -1415.32,470.769c-28.06,6.575 -56.033,13.303 -83.898,20.681c-116.883,30.903 -235.85,52.387 -354.666,74.306l-36.089,6.684c-338.476,63.02 -680.208,105.946 -1023.87,126.909l-21.658,1.346c-778.69,48.068 -1563.93,0.13 -2539.11,-200.998l-33.551,-7.466c-393.402,-87.89 -780.512,-204.687 -1156.27,-350.629c-26.758,-10.352 -53.581,-20.573 -80.382,-30.794c-210.395,-80.925 -415.799,-171.658 -619.445,-268.121l-21.701,-10.243c-147.787,-69.944 -292.014,-146.159 -435.113,-225.217l-15.972,-8.811c-126.801,-70.052 -252.084,-142.513 -374.11,-220.616c-22.874,-14.627 -45.856,-29.08 -68.881,-43.49c-101.193,-63.672 -200.477,-130.165 -297.873,-199.479c-22.331,-15.755 -44.705,-31.402 -67.166,-46.94c-82.074,-56.923 -162.413,-115.082 -240.994,-176.736c-13.606,-10.395 -27.235,-20.79 -40.863,-31.163c-66.168,-50.434 -130.686,-102.865 -195.074,-155.578c-13.824,-11.284 -27.691,-22.569 -41.58,-33.789c-90.017,-73.09 -178.038,-148.394 -263.325,-226.953c-18.75,-17.014 -37.695,-33.811 -56.836,-50.39c-34.44,-30.057 -67.882,-61.025 -101.106,-92.405l-36.459,-34.31l-18.663,-17.6c-18.359,-17.231 -36.74,-34.418 -55.187,-51.584c-171.397,-159.679 -171.397,-159.679 -242.339,-242.903c-20.464,-22.874 -42.187,-44.38 -64.019,-65.929c-31.966,-31.576 -62.565,-63.759 -91.71,-97.96c-17.665,-20.204 -35.851,-39.822 -54.167,-59.419c-43.989,-47.113 -85.894,-95.139 -126.28,-145.421c-18.772,-22.873 -38.303,-44.813 -58.247,-66.666c-37.977,-41.732 -73.09,-85.33 -107.964,-129.666l-32.01,-39.605c-150.347,-188.13 -294.574,-382.726 -427.17,-583.789c-13.693,-20.747 -27.495,-41.45 -41.384,-62.066c-49.176,-73.156 -97.526,-146.875 -145.052,-221.116l-15.018,-23.329c-29.145,-45.768 -56.076,-92.274 -81.749,-140.061c-20.963,-38.888 -42.969,-77.148 -64.909,-115.473l-13.021,-22.829c-21.614,-37.913 -43.75,-75.543 -66.362,-112.869c-20.725,-34.419 -39.215,-69.054 -56.793,-105.187c-22.895,-46.658 -46.571,-92.904 -71.072,-138.715c-55.165,-103.538 -104.557,-209.288 -152.995,-316.103c-12.999,-28.472 -26.085,-56.901 -39.301,-85.264c-73.025,-157.379 -73.025,-157.379 -101.346,-234.679c-12.304,-32.596 -25.585,-64.67 -38.975,-96.81c-37.978,-91.363 -72.222,-183.42 -104.058,-277.084c-7.466,-21.549 -15.278,-42.947 -23.156,-64.344c-235.156,-644.097 -379.969,-1317.58 -455.425,-1998.26l-3.234,-28.906c-32.53,-292.752 -40.321,-582.856 -39.713,-877.149c0.087,-49.197 0.043,-98.416 -0.065,-147.613c-0.521,-296.224 9.049,-588.129 43.012,-882.638l3.385,-29.905c52.387,-459.006 137.652,-910.634 259.744,-1356.27l5.556,-20.399c109.418,-400.803 244.878,-798.307 416.449,-1177c8.811,-19.444 17.557,-38.932 26.237,-58.441c107.097,-240.473 221.745,-476.172 350.369,-705.968l13.889,-24.979c62.305,-111.914 126.367,-222.417 194.445,-330.924l13.997,-22.331c104.796,-166.775 212.869,-330.751 329.21,-489.713c15.256,-21.072 30.317,-42.275 45.226,-63.585c51.345,-72.874 106.076,-142.969 161.176,-213.021c13.455,-17.166 26.888,-34.375 40.278,-51.628c42.491,-54.731 86.219,-108.463 131.206,-161.176c61.046,-71.549 61.046,-71.549 117.405,-146.788l12.196,-14.952l17.361,-0l5.599,-13.976c16.298,-28.733 38.498,-51.215 61.133,-75c9.483,-10.091 18.945,-20.204 28.407,-30.317l13.846,-14.735c15.603,-16.841 30.685,-34.093 45.638,-51.519c23.003,-26.628 47.352,-51.346 72.461,-75.977c15.364,-15.647 29.644,-31.771 43.88,-48.437c32.769,-37.674 67.448,-73.112 102.821,-108.355l19.661,-19.705c13.629,-13.65 27.279,-27.279 40.951,-40.907c20.725,-20.704 41.428,-41.428 62.109,-62.175l40.039,-39.974l18.468,-18.533c34.332,-34.245 69.857,-67.187 106.597,-98.828c24.154,-20.877 47.461,-42.621 70.812,-64.366l29.427,-27.236l14.432,-13.324c55.533,-51.281 111.957,-100.716 170.724,-148.242c26.997,-22.071 53.516,-44.618 80.013,-67.275c48.503,-41.297 98.221,-80.837 148.481,-119.965c20.812,-16.211 41.45,-32.617 61.914,-49.24c197.657,-160.265 407.813,-304.037 620.226,-443.859l19.141,-12.63c100.434,-66.211 203.016,-128.689 305.946,-190.929c36.154,-22.049 72.157,-44.336 107.986,-66.884c82.574,-48.958 168.403,-92.1 253.776,-135.915c98.872,-50.717 98.872,-50.717 196.918,-102.93c245.27,-133.008 507.553,-238.737 766.928,-340.408c22.612,-8.876 45.16,-17.839 67.708,-26.823c661.545,-260.72 1365.32,-418.121 2621.88,-555.773l18.359,-1.128c173.807,-10.482 347.96,-10.048 522.005,-10.265c8.073,0 16.146,-0.022 24.458,-0.043c257.226,-0.326 511.22,6.988 767.122,35.091c29.254,3.147 58.507,5.99 87.761,8.832c391.102,38 776.15,102.756 1158.42,193.208l0.152,-22.787c0.499,-70.876 1.128,-141.753 1.888,-212.651c0.39,-36.437 0.738,-72.874 0.955,-109.31c0.238,-35.178 0.586,-70.356 1.02,-105.534c0.152,-13.412 0.238,-26.823 0.303,-40.235c0.087,-18.815 0.326,-37.608 0.608,-56.423l0.282,-32.4c3.755,-30.73 11.393,-46.919 29.514,-71.702c17.361,-17.361 17.361,-17.361 41.32,-24.891l32.118,-7.791l18.294,-4.427c98.134,-23.438 196.962,-43.924 295.638,-64.887l65.213,-13.933c116.883,-24.913 233.81,-49.609 350.781,-74.066l20.204,-4.232l20.139,-4.21c100.672,-21.137 201.085,-43.49 301.237,-66.992c184.006,-43.078 368.902,-82.466 553.689,-122.049c29.904,-6.38 59.766,-12.934 89.605,-19.683l32.335,-7.227l28.147,-6.423c26.692,-4.601 51.345,-4.84 78.363,-4.536" style="fill:#cca213;fill-rule:nonzero;"/><path d="M7165.39,7766.19l32.704,-0.217c28.885,-0.152 57.726,-0.195 86.589,-0.152c17.969,0.022 35.937,0.022 53.906,0.022c151.801,0.044 302.691,3.646 453.841,18.989l21.441,2.17c75.499,7.921 150.564,18.359 225.586,29.948l20.226,3.103c42.752,6.814 84.158,16.32 126.085,27.17c16.601,2.952 33.225,5.664 49.913,8.138c45.443,7.27 89.497,17.427 134.006,29.015c21.593,5.469 43.294,10.438 65.104,14.931c49.328,10.829 96.094,27.691 143.533,44.835c49.024,17.686 97.939,34.982 147.808,50.108c198.438,60.156 198.438,60.156 286.35,102.301c28.885,13.368 58.377,24.978 87.999,36.588c103.212,40.755 202.279,89.649 301.216,139.714c11.393,5.729 22.808,11.415 34.245,17.035c37.673,18.663 74.696,38.585 111.046,59.722c35.915,20.747 71.94,41.146 108.506,60.764c97.049,52.735 191.862,108.833 283.008,171.224l14.909,10.178l12.717,8.811c25.195,16.059 51.302,30.469 77.279,45.247c1.627,560.33 3.146,1120.66 4.036,1680.99l0.044,25.13c0.282,180.252 0.542,360.504 0.803,540.734l0.39,291.84c0.413,285.091 1.129,570.161 1.997,855.252c0.911,292.968 1.497,585.937 1.692,878.906l0.087,124.154l0.022,24.674c0.108,131.098 0.564,262.196 1.128,393.273c0.565,131.814 0.782,263.606 0.63,395.399c-0.065,78.32 0.13,156.597 0.694,234.896c0.369,52.344 0.369,104.666 0.109,157.009c-0.152,29.818 -0.152,59.592 0.282,89.41c2.061,172.201 2.061,172.201 -21.311,222.743c-23.654,37.066 -52.734,64.323 -86.089,92.535c-11.025,12.239 -21.767,24.696 -32.249,37.37c-30.707,34.852 -62.326,68.793 -94.162,102.604l-16.667,17.795c-15.907,16.927 -31.857,33.767 -47.895,50.564l-15.017,15.864c-12.001,12.413 -24.501,24.371 -37.066,36.22l-17.361,-0l-6.489,15.256c-79.383,141.948 -304.752,268.229 -436.219,358.007l-28.256,19.401c-113.541,77.257 -230.468,151.954 -354.448,211.307c-30.426,14.844 -60.07,30.946 -89.844,47.07c-92.383,49.588 -186.567,90.972 -285.026,126.78c-20.877,7.812 -41.58,16.124 -62.001,25.021c-240.69,101.476 -511.306,147.44 -768.967,178.06l-18.989,2.322c-60.069,6.771 -119.618,7.748 -180.034,7.813l-32.162,0.087c-22.417,0.043 -44.835,0.065 -67.274,0.065c-33.681,0.021 -67.383,0.173 -101.064,0.347c-125.368,0.282 -248.632,-3.494 -373.046,-19.314l-31.446,-3.993c-25.759,-3.559 -51.41,-7.487 -77.061,-11.741l-27.366,-4.492c-299.501,-50.651 -591.927,-145.312 -862.391,-283.594l-20.335,-10.308c-82.204,-41.905 -162.174,-85.503 -239.04,-136.61c-24.479,-16.276 -49.284,-31.858 -74.284,-47.309c-145.638,-92.839 -280.447,-203.234 -406.098,-321.419c-19.358,-18.121 -39.15,-35.786 -59.397,-52.93c-21.224,-18.056 -41.667,-35.634 -60.221,-56.424l-0,-17.361l-14.822,-5.989c-25.348,-14.475 -41.233,-32.444 -60.591,-54.232l-20.724,-23.025c-16.711,-20.92 -16.711,-20.92 -25.391,-46.962l-26.042,-8.681c-15.256,-17.578 -29.904,-35.677 -43.945,-54.253l-12.761,-16.602c-8.745,-11.371 -17.447,-22.743 -26.128,-34.158c-11.523,-15.017 -23.134,-29.948 -34.874,-44.791c-126.649,-161.741 -241.081,-335.135 -333.681,-518.598l-8.81,-17.405c-14.931,-29.536 -29.731,-59.136 -44.401,-88.802c-9.831,-19.879 -19.836,-39.692 -30.035,-59.397c-34.896,-67.773 -63.715,-137.435 -92.144,-208.073c-9.158,-22.461 -18.924,-44.639 -28.603,-66.862c-29.058,-69.661 -51.736,-141.645 -74.956,-213.389c-6.988,-21.55 -14.063,-43.056 -21.137,-64.562c-67.991,-208.355 -112.088,-420.399 -151.303,-635.677l-5.642,-30.751c-27.691,-153.646 -43.338,-308.442 -55.121,-464.041l-2.214,-28.038c-6.011,-82.161 -8.029,-163.954 -8.247,-246.311l-0.065,-20.225c-0.13,-35.482 -0.195,-70.964 -0.238,-106.446c-0.044,-28.559 -0.152,-57.096 -0.348,-85.655c-1.757,-255.881 8.355,-510.547 51.628,-763.281c6.098,-36.806 10.742,-73.829 15.668,-110.829c4.688,-28.798 10.916,-56.967 17.383,-85.417c6.142,-28.06 11.155,-56.272 16.233,-84.549c13.325,-73.849 29.34,-145.942 50.325,-217.99c16.146,-55.642 29.102,-111.675 41.385,-168.273c8.767,-36.436 21.81,-70.963 34.918,-106.054c19.227,-52.973 35.286,-107.075 51.909,-160.916c19.987,-63.607 43.62,-124.675 70.204,-185.807l11.806,-27.474c52.3,-121.072 107.378,-239.497 170.399,-355.339c11.675,-21.962 22.114,-44.423 32.639,-66.949c110.764,-224.045 274.045,-437.89 441.97,-621.571c16.428,-18.164 32.466,-36.545 48.438,-55.1c33.724,-38.628 69.488,-74.935 105.838,-111.089l18.728,-18.837c40.256,-40.169 81.814,-78.212 125.043,-115.169l14.475,-12.565c125.868,-109.137 125.868,-109.137 193.859,-152.366l17.361,0l-0,-17.361c14.735,-11.133 30.056,-21.484 45.573,-31.467l28.863,-18.707l14.995,-9.678c22.7,-14.779 44.987,-30.144 67.361,-45.4c39.974,-26.671 80.643,-50.39 123.112,-72.808c24.61,-13.281 48.329,-27.669 72.201,-42.209c62.174,-36.589 127.778,-64.323 193.902,-92.882c24.826,-10.937 49.153,-22.808 73.567,-34.614c109.961,-51.085 227.865,-86.74 343.967,-120.985l27.431,-8.181c72.049,-21.094 144.249,-38.607 217.795,-53.668l33.203,-6.836c76.953,-15.451 152.908,-26.627 231.055,-33.29c25.412,-2.778 50.542,-6.944 75.825,-10.916c61.132,-8.767 120.833,-11.414 182.508,-11.545m7200.93,-3894.66l17.362,-0l-0,17.361l22.243,6.38c33.117,12.196 61.155,28.82 90.604,47.873l17.795,11.329c12.999,8.268 25.976,16.558 38.954,24.891c23.025,14.757 46.137,29.384 69.249,44.01c83.073,52.583 165.994,105.317 247.266,160.656l16.059,10.872c77.213,52.322 152.734,106.25 226.996,162.739c11.003,8.225 22.005,16.45 33.03,24.653c72.222,53.732 143.598,108.55 214.127,164.475c11.914,9.44 23.872,18.858 35.851,28.255c81.098,64.062 159.006,132.074 236.502,200.412c14.8,12.826 29.709,25.564 44.683,38.173c55.859,47.114 110.417,95.334 163.585,145.464l19.206,18.099c67.1,63.542 132.66,128.581 197.916,194.011c19.987,20.052 40.018,40.06 60.07,60.047c12.977,12.978 25.955,25.955 38.932,38.954l17.795,17.73c33.355,33.507 65.452,68.208 96.268,104.08c28.754,33.051 59.31,64.54 89.605,96.181c12.717,13.498 24.978,27.387 37.152,41.341l0,17.361l17.362,0c11.935,13.086 23.22,26.78 34.179,40.69l21.181,26.519l11.263,14.084c18.945,23.395 38.585,46.138 58.16,68.989c45.225,53.125 88.454,107.639 131.228,162.761c13.997,17.947 28.038,35.872 42.144,53.754c103.993,132.335 201.28,269.227 298.025,406.901c11.632,16.428 23.351,32.791 35.135,49.089c16.449,23.285 30.751,46.658 44.574,71.549c11.567,20.052 23.937,39.431 36.459,58.898c128.797,201.41 247.612,408.507 359.722,619.596c11.219,21.05 22.526,42.036 33.919,62.977c36.111,66.493 69.379,134.028 100.673,202.908c9.592,21.094 19.271,42.123 28.971,63.173c46.571,101.584 91.602,203.841 135.135,306.771c9.527,22.461 19.184,44.878 28.841,67.274c52.778,122.96 52.778,122.96 69.987,186.697c7.422,24.328 17.187,47.114 27.257,70.465c19.878,46.354 34.874,93.185 49.175,141.536c7.661,26.194 7.661,26.194 20.812,54.861c16.515,39.236 27.3,79.341 38.52,120.378c8.789,30.555 18.554,60.568 28.711,90.69c91.254,271.788 154.622,553.776 206.206,835.482l3.516,19.184c14.323,78.559 26.714,156.727 35.308,236.154c3.798,30.946 3.798,30.946 12.999,59.245c9.115,33.247 14.041,65.69 17.622,99.848l2.127,19.119c2.235,20.052 4.405,40.104 6.553,60.156l4.341,39.323c2.17,19.683 4.34,39.367 6.488,59.05c4.254,38.802 8.724,77.561 13.455,116.297c8.529,70.573 15.083,141.342 19.662,212.305l2.061,29.08c2.257,33.507 4.254,67.036 6.077,100.586l1.172,21.658c7.421,141.363 8.875,282.574 8.637,424.132c-0.044,29.492 -0.022,59.006 0.021,88.498c0.174,114.866 -0.629,229.601 -5.034,344.38l-0.999,27.278c-1.519,35.113 -3.602,66.971 -12.478,100.998c-1.584,19.966 -2.778,39.953 -3.733,59.94c-0.607,12.044 -1.237,24.088 -1.888,36.111l-0.954,19.054c-5.274,100.716 -12.717,199.978 -29.514,299.522c-8.768,52.192 -14.953,104.688 -21.441,157.205c-28.841,231.988 -70.92,459.31 -125.13,686.589c-7.553,31.684 -14.909,63.411 -22.223,95.138c-26.801,115.408 -58.051,229.059 -92.187,342.513c-5.794,19.445 -11.415,38.911 -16.884,58.442c-33.029,116.493 -72.417,230.99 -111.089,345.682c-9.983,29.579 -19.857,59.201 -29.601,88.845l-5.838,17.752c-5.295,16.102 -10.547,32.183 -15.798,48.264c-11.697,33.225 -26.15,64.453 -41.276,96.224c-15.669,35.59 -28.646,71.983 -41.797,108.572c-20.399,56.467 -42.557,111.046 -68.49,165.234c-22.765,48.872 -43.533,98.59 -64.453,148.286c-16.84,39.735 -34.505,78.667 -54.123,117.101c-9.462,19.01 -18.642,38.172 -27.518,57.465c-49.565,106.445 -103.71,209.592 -160.677,312.261c-15.473,28.147 -30.338,56.597 -45.204,85.07c-101.844,193.012 -216.818,380.62 -339.626,560.98l-13.368,19.705c-111.763,164.714 -111.763,164.714 -164.388,236.263c-14.15,19.466 -27.605,39.388 -40.365,59.788c-19.922,30.642 -40.495,59.592 -68.338,83.55c-42.621,19.488 -85.091,24.609 -131.293,28.754c-13.108,1.519 -26.215,3.039 -39.345,4.579c-254.926,27.431 -540.212,35.157 -792.903,-15.972l-8.681,-8.68c-30.013,-5.751 -60.069,-10.764 -90.191,-15.691c-158.051,-26.562 -319.097,-95.594 -454.601,-180.664c-18.402,-11.328 -37.109,-21.137 -56.336,-30.968c-142.513,-79.014 -273.677,-208.007 -371.094,-336.914l-19.64,-25.086c-47.331,-61.394 -88.281,-125.391 -127.93,-191.927l-14.995,-23.98c-22.939,-36.915 -42.361,-72.179 -56.424,-113.303c-11.241,-31.75 -24.913,-62.5 -38.151,-93.468c-30.838,-76.454 -55.816,-153.624 -77.604,-233.117l-7.661,-27.409c-7.53,-27.17 -14.865,-54.405 -22.178,-81.64l-6.728,-23.676c-21.072,-77.67 -31.814,-156.663 -42.578,-236.263c-3.255,-23.72 -6.641,-47.396 -10.069,-71.072c-37.457,-267.796 -38.672,-536.09 -38.238,-805.925c0.043,-49.87 0.021,-99.739 -0,-149.609c-0.044,-87.11 -0.022,-174.241 0.043,-261.372c0.087,-93.337 0.109,-186.675 0.109,-279.991l-0,-108.659c-0.022,-217.99 0.021,-436.003 0.13,-653.993c0.108,-215.69 0.173,-431.38 0.195,-647.07l0,-204.319l0.065,-457.248l0,-21.029c0.044,-337.001 0.152,-673.98 0.261,-1010.98l0.13,-350.564l-0,-21.962c0.043,-359.245 0.108,-718.489 0.239,-1077.73l0.217,-1302.69l-0,-41.276c0.108,-618.945 0.26,-1237.89 0.455,-1856.84l0,-17.557l0.282,-868.923Z" style="fill:#e4d9a7;fill-rule:nonzero;"/><path d="M10312.9,2792.99l37.391,-0.066c236.979,-0.368 472.461,9.397 708.746,28.256l-0,17.361l29.297,-0.608c107.508,-1.541 209.375,8.377 315.321,26.346c44.553,7.487 89.193,13.802 133.963,19.77c111.697,15.039 222.33,33.897 333.051,54.861l20.659,3.884c71.702,13.542 142.709,28.19 213.369,46.506c39.822,9.918 80.164,15.951 120.659,22.505c38.303,7.487 75.087,19.509 112.24,31.293l19.531,6.142c15.799,4.991 31.597,9.982 47.396,14.995l-0,28.234l0.369,957.009l0.022,19.488c0.26,689.106 0.607,1378.21 0.976,2067.34l0.043,45.941c1.151,506.25 1.454,1013.78 0.89,1522.57c0.239,374.956 0.413,749.935 0.564,1124.89l0,24.414l0.152,389.497c0.413,627.062 0.76,1254.02 1.02,1880.82c0.152,239.627 0.239,479.232 0.282,718.837c0.087,275.13 0.239,550.303 0.478,825.52l0.022,19.901c0.086,103.385 0.108,206.749 0.065,310.134c-0.022,102.04 0.065,204.058 0.217,306.077c0.087,54.427 0.13,108.854 0.043,163.281c-0.26,221.68 3.494,441.059 24.848,661.805c5.013,53.212 7.921,106.511 10.243,159.896c1.302,27.366 3.125,50.304 11.849,76.433c2.344,24.869 3.841,49.739 5.382,74.674c2.583,23.025 6.25,43.75 11.502,66.189c10.351,44.575 15.994,89.367 21.636,134.744c9.375,71.485 21.897,140.582 39.605,210.504c3.386,14.648 6.749,29.318 10.07,43.967c24.479,108.376 24.479,108.376 60.286,213.389c10.135,26.628 17.47,53.755 25.13,81.185c34.918,117.275 70.855,236.242 128.668,344.532c7.682,15.256 14.8,30.75 21.376,46.506c19.553,46.224 42.339,90.885 64.8,135.764l14.019,28.059c28.299,56.272 57.531,111.285 90.517,164.974c10.481,18.013 10.481,18.013 19.162,44.054c-48.069,1.281 -91.884,-2.235 -138.889,-13.021l-20.03,-4.6c-208.898,-50.217 -412.826,-130.187 -576.932,-272.309c-51.128,-48.611 -87.955,-100.868 -123.524,-161.459l-13.455,-20.139c-72.374,-110.329 -100.651,-242.686 -125.434,-370.486l-5.36,-26.584c-35.265,-190.972 -31.836,-383.963 -31.489,-577.257c0.065,-43.403 0.022,-86.784 0,-130.186c-0.043,-75.89 -0.022,-151.78 0.065,-227.691c0.109,-112.848 0.109,-225.717 0.087,-338.564c-0.022,-189.887 0.043,-379.774 0.152,-569.64c0.087,-187.934 0.152,-375.868 0.174,-563.802l-0,-17.708l0.021,-160.178l0.044,-398.112l-0,-18.316c0.065,-293.576 0.152,-587.174 0.282,-880.772l0.108,-305.491l0,-19.141c0.239,-312.934 0.304,-625.846 0.239,-938.78l0.217,-1134.44l0,-35.959c0.087,-368.989 0.174,-737.956 0.304,-1106.94l-0,-31.206c0.13,-417.296 0.282,-834.592 0.434,-1251.87l-1718.75,0l-0,876.737c-40.3,-16.125 -65.061,-33.79 -96.571,-61.849c-49.827,-43.186 -101.216,-82.509 -155.165,-120.443l-34.18,-24.392c-111.675,-79.536 -224.349,-156.294 -342.448,-226.02c-29.449,-17.427 -58.333,-35.656 -87.239,-53.95c-57.618,-35.569 -117.362,-65.43 -178.191,-94.987c-22.938,-11.22 -45.703,-22.743 -68.489,-34.245c-64.583,-32.595 -129.774,-63.867 -195.247,-94.618c-34.614,-16.276 -68.902,-32.899 -102.778,-50.673c-46.593,-23.632 -95.595,-40.863 -144.597,-58.767c-34.613,-12.695 -68.685,-26.519 -102.799,-40.517c-48.676,-19.596 -98.199,-36.718 -148.59,-51.367c-21.332,-6.423 -42.513,-13.303 -63.585,-20.594c-48.35,-16.233 -97.569,-28.798 -146.983,-41.428l-27.8,-7.183c-22.374,-5.751 -44.748,-11.502 -67.144,-17.231l0,-17.361l-33.29,1.28c-47.743,-0.022 -90.972,-10.287 -137.066,-21.897c-68.12,-16.406 -135.026,-29.297 -204.644,-37.022c-24.305,-3.125 -24.305,-3.125 -50.347,-11.806c-40.43,-4.904 -80.946,-8.659 -121.484,-12.435c-32.075,-2.995 -64.128,-6.163 -96.181,-9.527c-146.224,-14.561 -291.927,-15.733 -438.715,-15.495c-27.778,0.022 -55.534,-0.021 -83.312,-0.173c-191.949,-1.085 -380.23,7.856 -571.072,28.95l-24.37,2.56c-35.005,3.733 -67.687,8.768 -101.498,18.598c-40.733,10.656 -80.208,16.819 -122.07,21.159c-68.425,7.118 -135.807,18.533 -203.451,30.925l-30.121,5.403c-48.915,9.137 -95.182,20.074 -142.014,36.806c-20.378,6.575 -40.473,10.807 -61.524,14.757c-45.594,8.572 -89.344,21.029 -133.637,34.722l-25.781,7.943c-285.829,89.149 -562.587,195.399 -826.91,336.219c-31.402,16.624 -63.107,32.639 -95.117,48.091c-40.885,20.182 -78.819,43.272 -116.667,68.641c-23.307,14.518 -46.766,27.474 -70.985,40.365c-52.517,28.429 -101.953,60.547 -151.432,93.902l-27.365,18.359c-80.252,54.058 -159.202,109.983 -236.849,167.73l-15.734,11.719c-72.352,54.123 -141.558,111.588 -209.961,170.573l-18.858,16.167c-39.519,34.223 -77.973,69.575 -116.407,105.013c-23.546,21.767 -47.547,43.034 -71.983,63.824c-72.439,62.869 -139.649,130.903 -201.649,204.102c-18.468,21.18 -37.609,41.623 -56.858,62.109c-52.496,55.925 -102.691,113.846 -150.564,173.785c-8.529,10.351 -17.058,20.681 -25.608,30.989c-102.387,123.98 -197.526,252.822 -285.352,387.5c-10.264,15.56 -20.659,31.033 -31.184,46.441c-93.295,137.262 -178.82,280.013 -252.214,428.928c-14.062,27.8 -28.646,55.295 -43.316,82.791c-79.904,150.217 -155.317,304.037 -213.021,464.323c-8.246,-26.411 -8.637,-44.227 -2.778,-71.159l4.579,-21.528l5.144,-23.047l5.165,-23.936c3.624,-16.71 7.291,-33.399 10.981,-50.109c5.598,-25.412 11.154,-50.846 16.623,-76.28l10.633,-48.785l4.992,-22.873c9.114,-41.146 19.596,-81.923 31.467,-122.352c4.904,-18.837 9.7,-37.696 14.453,-56.554c48.351,-191.016 97.049,-383.16 166.211,-567.904c13.542,-36.805 26.042,-73.85 38.238,-111.089c17.469,-53.342 34.852,-105.556 58.941,-156.315c11.393,-25.955 20.464,-52.518 29.774,-79.276c15.69,-44.639 33.594,-88.346 53.733,-131.163c14.431,-31.727 27.56,-63.889 40.668,-96.159c82.118,-200.716 174.067,-398.828 278.038,-589.192c14.128,-26.129 27.366,-52.539 40.43,-79.21c29.34,-59.137 62.239,-116.081 95.486,-173.069l9.766,-16.84c108.42,-187.11 225.195,-368.208 346.137,-547.396l16.58,-24.675c52.17,-77.582 105.251,-153.841 162.977,-227.408c19.618,-25.087 38.607,-50.521 57.53,-76.151c45.183,-60.481 93.099,-118.685 140.929,-177.105c15.929,-19.683 31.706,-39.496 47.331,-59.44c66.58,-83.485 137.956,-163.324 210.026,-242.079c16.037,-17.6 16.037,-17.6 29.709,-37.5l12.001,-15.017l17.361,-0l7.118,-15.56c10.178,-19.032 20.66,-32.248 35.417,-47.873c5.078,-5.426 10.156,-10.829 15.386,-16.407l16.71,-17.513l17.47,-18.467c59.114,-62.153 119.423,-123.069 180.165,-183.616c18.229,-18.186 36.415,-36.415 54.601,-54.644l35.503,-35.503l16.102,-16.146c32.553,-32.379 66.211,-63.043 100.955,-93.099c16.754,-14.584 33.138,-29.601 49.176,-44.987l16.818,-15.994l17.188,-16.363c46.354,-43.772 93.359,-85.807 143.229,-125.608c26.107,-20.941 51.584,-42.556 77.04,-64.279c206.467,-175.347 422.938,-336.762 647.461,-488.238c13.672,-9.245 27.3,-18.555 40.907,-27.908l21.246,-14.497l19.227,-13.194l16.059,-9.549l17.361,0l0,-17.361l12.5,-6.445c45.096,-24.089 87.392,-51.15 129.644,-79.818c45.421,-30.751 91.189,-58.745 139.779,-84.331c21.332,-11.394 41.949,-23.525 62.587,-36.111c43.272,-26.259 87.304,-51.064 131.488,-75.76c28.342,-15.755 56.532,-31.771 84.571,-48.047c67.968,-39.496 136.849,-75.477 207.422,-110.026c22.981,-11.371 45.855,-22.917 68.728,-34.462c74.088,-37.326 148.85,-73.003 224.284,-107.552c19.184,-8.811 38.303,-17.708 57.443,-26.606c69.228,-31.922 138.499,-60.72 210.938,-84.548c36.458,-12.175 69.922,-27.105 104.08,-44.727c21.701,-10.851 43.923,-19.227 66.775,-27.344l27.582,-9.874l28.169,-9.939l27.777,-9.939c54.514,-19.401 109.267,-38.064 164.258,-56.033c21.246,-7.335 42.231,-15.365 62.956,-24.089c177.387,-72.027 365.365,-117.339 550.13,-166.015l49.957,-13.412c90.994,-24.392 181.597,-47.265 274.11,-65.191c31.554,-6.25 62.934,-13.151 94.336,-20.204c136.545,-30.49 272.092,-53.863 410.872,-71.462c22.505,-2.908 22.505,-2.908 47.461,-12.023c18.229,-2.387 36.502,-4.405 54.796,-6.25l32.618,-3.342l68.229,-6.858l32.617,-3.342l29.948,-3.016c25.434,-2.496 25.434,-2.496 50.89,-11.914c12.413,-1.389 24.848,-2.474 37.326,-3.234l22.743,-1.497l24.501,-1.519l25.26,-1.65c26.693,-1.736 53.364,-3.428 80.057,-5.121c26.627,-1.693 53.233,-3.385 79.861,-5.122c16.58,-1.085 33.138,-2.148 49.718,-3.168c36.154,-2.344 70.356,-6.163 105.881,-13.411c24.24,-1.975 48.307,-3.581 72.591,-4.753l22.678,-1.085c110.091,-4.774 220.312,-4.926 330.469,-4.991m8.29,13014.3l17.361,-0l5.165,17.231c7.834,26.085 15.711,52.17 23.589,78.255c2.691,8.941 5.36,17.882 8.116,27.083c15.018,49.631 31.142,98.221 49.935,146.528c6.359,16.797 12.696,33.615 18.989,50.456l9.049,24.045c6.684,20.985 6.684,20.985 6.684,47.027l17.362,-0l13.671,31.727l18.338,42.057l8.941,20.812c20.378,46.484 44.076,88.715 71.897,131.098l14.475,23.394c181.749,290.582 419.791,523.373 722.461,686.828c48.763,25.868 97.482,49.826 148.48,71.028l17.796,7.552c149.132,62.913 302.083,117.665 462.521,142.6c25.152,4.818 47.331,10.807 71.55,18.685c55.273,17.036 111.35,24.11 168.62,31.359c5.664,0.737 11.328,1.475 17.144,2.213c190.473,24.566 381.271,34.809 573.133,40.647l2.908,-25.087c5.903,-41.124 17.275,-80.404 28.559,-120.313c23.785,-85.438 46.268,-171.158 68.034,-257.139c14.692,-57.357 31.207,-113.824 48.893,-170.335c10.374,-34.418 18.642,-69.097 26.303,-104.21c8.572,-39.019 18.381,-75.824 33.637,-112.847l3.797,-28.754c4.883,-32.01 4.883,-32.01 16.624,-62.457c17.491,-45.399 28.428,-92.122 39.8,-139.366l13.607,-55.382l6.64,-27.083c12.956,-52.105 26.954,-103.907 41.059,-155.708l26.042,8.681c14.996,17.795 28.993,35.612 42.86,54.253c41.624,54.536 86.177,104.992 133.182,154.905c19.249,20.594 37.977,41.666 56.163,63.194c24.74,28.646 51.823,52.973 80.664,77.409c16.124,14.063 30.925,28.711 45.747,44.119c39.561,40.104 83.42,74.631 127.495,109.592l24.827,20.009c176.085,139.127 370.985,257.942 574.132,353.255l22.526,10.851c58.463,27.517 118.424,50.13 179.036,72.439c25.76,9.527 51.367,19.574 76.758,30.1c101.758,40.95 205.512,69.553 311.957,94.943c17.188,4.319 34.375,8.659 51.541,13.021c66.558,16.667 133.377,32.161 200.195,47.743c-23.48,31.988 -45.225,52.387 -79.21,72.7c-31.423,19.271 -62.174,38.867 -92.231,60.221c-119.444,84.353 -243.055,162.413 -366.753,240.343l-18.012,11.35c-53.798,33.789 -108.073,65.994 -164.084,95.963c-38.477,20.834 -76.476,42.492 -114.497,64.15c-33.811,19.097 -68.142,37.239 -102.995,54.383c-27.343,13.651 -54.188,28.212 -81.098,42.709c-92.925,49.739 -187.456,95.356 -283.203,139.431l-21.875,10.091c-98.307,45.269 -197.048,89.15 -297.027,130.621c-25.217,10.525 -50.26,21.441 -75.108,32.791c-42.774,19.119 -86.502,34.896 -130.621,50.564c-62.044,22.244 -123.72,45.204 -185.004,69.444c-44.792,17.644 -89.28,34.245 -135.677,47.266c-31.077,8.811 -61.893,18.49 -92.73,28.147l-18.295,5.729c-82.161,25.781 -82.161,25.781 -162.912,55.577c-33.116,12.717 -66.363,19.336 -101.28,25.261c-20.877,3.971 -20.877,3.971 -39.909,12.5c-34.918,13.563 -70.834,21.158 -107.292,29.513c-63.281,14.714 -126.389,30.079 -189.345,46.116c-70.876,17.925 -141.905,33.029 -213.758,46.658c-24.067,4.666 -48.112,9.353 -72.157,14.106l-32.444,6.315c-24.87,4.362 -24.87,4.362 -42.969,14.301c-15.039,2.8 -30.143,5.274 -45.269,7.53l-28.125,4.254l-30.23,4.492l-92.882,13.976c-25.651,3.928 -51.258,8.008 -76.866,12.239c-68.099,11.22 -135.156,20.552 -204.123,24.849c-25.695,2.083 -50.499,5.859 -75.89,10.243c-68.316,11.284 -137.196,15.625 -206.228,20.529l-27.67,2.018l-24.956,1.736c-22.288,1.671 -22.288,1.671 -47.136,10.981c-197.265,23.308 -398.502,18.772 -596.853,18.49c-33.333,-0.044 -66.667,-0.022 -100,0.022c-547.569,0.694 -547.569,0.694 -631.272,-27.192c-24.067,-1.389 -48.068,-2.431 -72.157,-3.255c-73.025,-3.125 -144.488,-11.546 -216.775,-22.049c-40.603,-5.881 -80.794,-11.068 -121.766,-13.759c-59.245,-4.297 -117.123,-15.69 -175.434,-26.475c-31.402,-5.708 -62.848,-11.025 -94.293,-16.385c-75.369,-12.891 -150.586,-26.432 -225.608,-41.233l-22.526,-4.405c-17.491,-3.559 -34.939,-7.335 -52.343,-11.328l-8.681,-8.681c-30.252,-5.729 -60.547,-10.785 -90.972,-15.69c-37.023,-6.12 -73.242,-15.364 -108.681,-27.712c-22.721,-5.665 -45.508,-11.09 -68.359,-16.277l-39.258,-9.114l-20.074,-4.666c-148.177,-34.722 -148.177,-34.722 -214.713,-58.203c-24.458,-7.986 -49.176,-14.714 -74.002,-21.419c-96.918,-26.15 -191.819,-57.292 -286.719,-89.974l-20.334,-6.966c-70.269,-24.111 -139.692,-49.653 -208.464,-77.756c-38.888,-15.777 -78.19,-29.753 -117.881,-43.316c-63.173,-21.789 -124.935,-46.528 -186.632,-72.158l-26.151,-10.829c-47.591,-19.965 -94.357,-41.666 -140.321,-65.104c-32.443,-16.189 -65.581,-30.642 -98.828,-45.052c-81.315,-35.33 -161.61,-70.768 -239.258,-113.758c-28.732,-15.756 -57.639,-31.207 -86.718,-46.333c-264.779,-138.346 -520.031,-289.258 -767.774,-456.228c-17.361,-11.589 -34.722,-23.177 -52.083,-34.722c29.21,-9.744 41.71,-7.553 71.614,-2.171l28.581,5.079c29.058,5.598 58.008,11.631 86.979,17.708c161.828,32.357 323.676,52.235 488.347,61.024l32.66,1.736l28.82,1.389c26.888,2.04 26.888,2.04 50.955,6.511c38.563,5.794 76.519,5.62 115.473,5.664l25.889,0.108c27.865,0.087 55.73,0.109 83.594,0.065l28.863,0c297.135,-0.347 590.733,-16.189 882.487,-75.759c18.62,-3.69 37.24,-7.032 55.946,-10.157c88.932,-15.234 174.089,-38.888 260.46,-64.626c26.064,-7.661 52.17,-15.061 78.32,-22.396c87.262,-24.631 172.375,-50.412 255.947,-85.677c29.687,-12.283 59.613,-22.873 89.995,-33.268c59.657,-21.051 116.233,-46.984 173.091,-74.458c18.836,-8.963 37.717,-17.773 56.684,-26.454c74.088,-34.223 146.766,-70.377 218.359,-109.592l21.159,-11.545c47.83,-26.563 93.121,-55.925 138.346,-86.654c12.088,-7.986 24.197,-15.95 36.328,-23.915c121.789,-80.273 242.861,-162.174 353.733,-257.248c17.925,-13.976 17.925,-13.976 43.967,-22.656l-0,-17.361c14.28,-12.565 28.928,-24.696 43.945,-36.35c34.679,-27.713 66.797,-55.838 97.548,-87.782c22.266,-22.266 46.267,-42.383 70.291,-62.674c14.865,-12.218 14.865,-12.218 22.591,-30.208l17.361,-0l8.681,-26.042l17.361,0l5.599,-14.236c16.015,-27.886 38.151,-48.307 61.133,-70.399c34.895,-34.202 68.533,-68.685 100.238,-105.925c18.75,-21.744 38.195,-42.773 57.639,-63.889c42.708,-46.896 82.943,-95.377 122.613,-144.856l25.911,-31.901c44.922,-55.513 88.586,-110.851 127.691,-170.704l11.329,-14.409Z" style="fill:#e4d9a7;fill-rule:nonzero;"/><path d="M8722.87,4415.15l30.143,0.26c108.724,1.932 194.575,23.589 292.123,72.439l18.012,8.073c99.913,45.812 190.625,122.157 254.688,211.176c46.18,67.47 81.163,137.913 109.244,214.779l8.941,24.067c31.315,101.128 28.82,217.969 8.16,320.985c-30.447,129.905 -82.552,241.971 -172.808,340.712c-17.144,17.773 -34.679,35.135 -52.626,52.083c-6.944,6.598 -13.889,13.195 -21.05,19.966c-95.226,82.421 -218.837,132.378 -340.799,158.658c-138.628,17.644 -270.616,6.641 -399.87,-47.33c-12.348,-6.033 -24.653,-12.196 -36.892,-18.446l-21.962,-10.113c-94.575,-46.463 -176.042,-124.219 -239.279,-208.052c-71.832,-108.072 -122.331,-216.71 -131.25,-347.287c-6.576,-142.925 -1.085,-266.58 64.8,-395.92c64.41,-111.827 142.556,-206.814 249.566,-279.948l16.102,-11.285c110.157,-73.372 233.594,-106.488 364.757,-104.817m-2450.63,0.542l31.055,-0.087c54.904,0.348 102.517,4.167 155.034,20.161l26.888,6.554c119.51,32.595 215.343,98.09 302.973,184.418l16.038,14.15c72.721,66.08 125.499,159.548 157.617,251.562c37.891,129.015 51.953,263.108 23.524,395.616c-29.123,117.557 -85.113,226.997 -167.339,316.32c-15.56,15.733 -31.294,31.293 -47.201,46.658l-18.207,19.01c-70.334,69.271 -168.88,120.486 -263.911,145.92l-22.526,4.883l-16.536,3.798l-8.681,8.68c-129.861,19.163 -275.911,23.091 -399.739,-24.153c-124.74,-50.803 -232.943,-123.872 -318.685,-228.972c-71.354,-96.05 -135.742,-217.361 -149.631,-337.152c-11.307,-157.618 -1.867,-293.512 67.274,-436.741c29.036,-56.814 63.064,-106.445 106.337,-153.537l16.753,-18.555c86.936,-91.645 194.445,-150.108 313.108,-189.778l16.233,-6.706c59.613,-23.134 116.276,-22.917 179.622,-22.049m6291.3,-2953.73l14.583,5.056c-24.653,16.667 -41.276,25.738 -71.072,29.839l-24.414,4.883c-9.983,17.079 -9.983,17.079 -17.361,34.722l-34.722,8.681l-0,572.917l-17.362,-0c-0.607,-73.959 -1.063,-147.895 -1.345,-221.854c-0.13,-34.331 -0.326,-68.685 -0.608,-103.016c-0.282,-33.138 -0.455,-66.298 -0.521,-99.458c-0.043,-12.63 -0.13,-25.26 -0.282,-37.89c-0.173,-17.73 -0.238,-35.46 -0.195,-53.19l-0.174,-30.556c3.494,-30.078 11.502,-46.007 29.167,-70.356c19.857,-19.857 33.051,-23.915 59.679,-32.009l22.721,-7.162c21.767,-4.232 21.767,-4.232 41.906,-0.607m-2641.67,18251.6c277.886,-1.476 555.512,2.712 833.333,8.68l0,8.681c-116.905,6.858 -233.919,10.113 -351.02,9.765l-23.654,-0.043c-103.212,-0.152 -206.315,-1.389 -309.462,-4.839l-30.99,-1.02c-40.451,-1.584 -78.58,-3.755 -118.207,-12.544l-0,-8.68Z" style="fill:#cca213;fill-rule:nonzero;"/><path d="M2491.32,9149.31l26.042,8.68c-4.796,74.219 -27.148,133.768 -60.764,199.653c-8.702,-27.365 -8.29,-45.942 -2.235,-73.893l4.709,-22.092l5.122,-22.83l4.904,-23.156c8.941,-41.08 8.941,-41.08 13.542,-57.682l8.68,-8.68Z" style="fill:#e4d9a7;fill-rule:nonzero;"/><path d="M19001.7,8689.24l8.681,0c8.897,41.537 17.708,83.095 26.432,124.675c2.995,14.127 5.99,28.277 9.028,42.404c4.34,20.313 8.615,40.625 12.847,60.959l4.167,19.141c3.277,15.885 5.837,31.923 8.29,47.96l-8.681,26.042c-11.762,-23.525 -9.245,-43.49 -8.681,-69.445l-17.361,0l-5.403,-28.863l-7.075,-37.868l-3.537,-18.967l-3.473,-18.577l-3.385,-18.164c-2.604,-13.476 -5.425,-26.91 -8.333,-40.321c-5.382,-29.905 -4.037,-58.637 -3.516,-88.976m-14739.6,8637.15c19.705,-2.127 19.705,-2.127 43.403,-0c16.927,14.887 16.927,14.887 32.009,34.18c19.727,26.041 19.727,26.041 46.116,43.945l-0,26.042l26.041,-0c14.649,13.02 14.649,13.02 26.042,26.041l-8.681,26.042l-20.659,-19.054l-27.626,-25.434l-14.345,-13.194c-25.738,-23.611 -51.693,-46.789 -78.429,-69.271l-23.871,-20.616l-0,-8.681Zm2734.38,-11197.9l-0,8.681l-24.805,1.454c-30.512,1.801 -61.003,3.646 -91.493,5.49c-13.173,0.803 -26.345,1.585 -39.518,2.344c-18.989,1.107 -37.978,2.257 -56.945,3.429l-34.592,2.062c-25.39,2.148 -48.958,6.054 -73.828,11.263c-21.332,-1.042 -21.332,-1.042 -41.775,-3.798l-20.79,-2.691l-15.56,-2.192l0,-8.681c133.507,-13.216 265.148,-19.748 399.306,-17.361m4019.1,-4184.03c60.091,-0.999 118.707,2.821 178.494,8.68c8.746,0.825 17.513,1.649 26.541,2.517c21.354,2.019 42.708,4.08 64.062,6.164l0,8.68c-38.346,0.499 -76.671,0.825 -115.017,1.085l-32.986,0.434l-31.706,0.174l-29.21,0.282c-24.935,-1.931 -39.106,-6.38 -60.178,-19.336l-0,-8.68Zm-5729.17,16206.6c48.807,11.198 90.929,28.928 130.209,60.764l-0,17.361l34.722,17.361l-0,17.361c-40.864,-13.672 -72.418,-36.22 -106.879,-61.306c-5.599,-3.993 -11.198,-7.987 -16.971,-12.088c-13.845,-10.048 -27.539,-20.313 -41.081,-30.773l0,-8.68Zm7277.08,-16689.1l14.583,5.056c-24.653,16.667 -41.276,25.738 -71.072,29.839l-24.414,4.883c-12.457,16.949 -12.457,16.949 -17.361,34.722l-43.403,0c10.004,-21.419 17.773,-35.134 34.722,-52.083c19.466,-7.704 19.466,-7.704 42.318,-14.648l22.721,-7.162c21.767,-4.232 21.767,-4.232 41.906,-0.607m-5193.75,17756.8c60.481,4.536 113.238,8.941 164.93,43.403l26.042,8.68l-0,17.362c-67.036,-12.5 -127.843,-35.2 -190.972,-60.764l-0,-8.681Zm8732.64,-15191c37.825,20.551 67.122,46.137 98.198,75.412l14.475,13.433c11.654,10.873 23.286,21.767 34.896,32.683l-26.042,8.68c-23.329,-15.733 -23.329,-15.733 -43.402,-34.722l-0,-17.361l-26.042,-0c-14.649,-11.393 -14.649,-11.393 -26.042,-26.042l0,-26.041l-26.041,-0l-0,-26.042Z" style="fill:#cca213;fill-rule:nonzero;"/><path d="M9817.71,16397.6l17.361,26.041c-15.342,15.582 -30.707,31.12 -46.115,46.658l-13.129,13.368c-19.966,20.096 -38.629,37.045 -62.283,52.821l-26.042,-8.68l14.887,-12.674l19.293,-16.623l19.227,-16.471c16.775,-13.933 16.775,-13.933 24.718,-32.357l17.361,-0l8.681,-26.042l17.361,0l8.68,-26.041Zm-4678.82,-7795.14l17.361,8.68c-8.268,10.178 -16.58,20.291 -24.957,30.382l-14.04,17.101l-13.086,13.281l-17.361,0l-17.362,34.722l-17.361,0l-5.968,16.276l-11.393,18.447c-22.786,10.85 -22.786,10.85 -43.403,17.361c45.747,-55.643 96.268,-105.773 147.57,-156.25" style="fill:#e4d9a7;fill-rule:nonzero;"/><path d="M12404.5,2118.06l8.68,-0l0,43.402c-14.995,1.954 -30.013,3.711 -45.03,5.426l-25.325,3.06c-27.713,0.217 -44.315,-3.841 -68.533,-17.166l-8.681,-26.042c18.273,2.691 36.545,5.404 54.796,8.138l30.816,4.579c27.235,4.644 27.235,4.644 53.277,13.325l-0,-34.722Zm2630.21,1128.47c118.772,68.424 118.772,68.424 156.25,95.486l0,8.681l-43.403,-0l-5.425,-16.819l-11.936,-17.904c-26.562,-7.074 -26.562,-7.074 -52.083,-8.68l0,-17.361l-34.722,-8.681l-8.681,-34.722Zm-1918.4,-1892.36l-17.361,17.361c-20.225,3.19 -40.473,6.098 -60.764,8.68l-8.68,8.681c-18.989,0.586 -37.978,0.781 -56.966,0.543l-31.511,-0.239l-24.37,-0.304l-0,-8.681c26.736,-6.098 53.515,-12.022 80.295,-17.903l22.96,-5.23l22.2,-4.84l20.4,-4.535c20.399,-2.366 34.375,0.26 53.797,6.467" style="fill:#cca213;fill-rule:nonzero;"/><path d="M4505.21,5312.5l26.042,8.681c-15.495,17.404 -31.055,34.765 -46.658,52.083l-13.368,15.061c-11.458,12.673 -23.438,24.891 -35.46,37.022l-17.361,0l-0,17.361l-26.042,-8.68l17.361,-0c2.04,-4.796 4.08,-9.57 6.163,-14.518c14.041,-25.348 31.728,-44.467 51.346,-65.777l21.506,-23.459l16.471,-17.774Z" style="fill:#e4d9a7;fill-rule:nonzero;"/><path d="M18203.1,16953.1l60.764,0c-17.665,17.665 -28.603,23.177 -51.346,32.357l-20.008,8.138l-20.877,8.333l-21.094,8.551c-17.187,6.944 -34.396,13.867 -51.606,20.746l17.361,-34.722l43.403,-0l8.681,-26.042l34.722,0l0,-17.361Zm-4878.47,-15659.7l17.361,8.68l-8.681,17.362c-24.804,5.555 -49.761,10.264 -74.869,14.105l-20.921,3.516c-40.95,6.597 -79.774,9.635 -121.224,8.42l0,-8.68c34.354,-7.487 68.707,-14.909 103.082,-22.244l29.666,-6.489l28.32,-6.033l26.172,-5.642l21.094,-2.995Zm5208.33,6006.94c19.618,29.427 31.706,60.026 44.488,92.774l7.292,18.468c5.902,14.995 11.805,29.991 17.665,45.008l-26.042,8.681l-34.722,-104.167l-8.681,0l0,-60.764Z" style="fill:#cca213;fill-rule:nonzero;"/><path d="M9652.78,16562.5l-0,26.042c-10.482,15.842 -10.482,15.842 -24.414,32.009l-13.737,16.385l-13.933,12.37l-26.041,-0l-17.361,34.722l-26.042,-17.361l19.965,-16.168l26.15,-21.267l25.934,-21.05c17.491,-14.671 33.81,-29.145 49.479,-45.682m-7152.78,-7473.96l17.361,17.361l34.722,8.68l-26.041,78.125l-17.361,-34.722l-17.362,-8.68l8.681,-60.764Z" style="fill:#e4d9a7;fill-rule:nonzero;"/><path d="M14513.9,2951.39c44.423,18.511 87.305,38.932 130.208,60.764l0,8.68c-31.38,2.236 -50.564,0.651 -79.752,-11.935c-17.144,-9.94 -33.963,-20.443 -50.456,-31.467l-0,-26.042Z" style="fill:#cca213;fill-rule:nonzero;"/><path d="M9053.82,18776c29.666,0.694 59.31,1.692 88.976,2.712l25.478,0.586l24.566,0.934l22.591,0.694c20.681,3.754 20.681,3.754 40.755,17.057l14.648,12.739c-51.041,1.389 -97.526,-3.385 -147.569,-13.021l-20.378,-3.776c-16.363,-3.038 -32.725,-6.12 -49.067,-9.245l0,-8.68Z" style="fill:#dfcd86;fill-rule:nonzero;"/><path d="M4435.76,17482.6c20.074,-2.713 20.074,-2.713 43.403,-0c9.158,14.171 17.838,28.646 26.041,43.403c22.266,15.69 22.266,15.69 43.403,26.041l-8.68,26.042c-40.257,-28.429 -75.391,-54.731 -104.167,-95.486" style="fill:#cca213;fill-rule:nonzero;"/><path d="M5321.18,8446.18l17.361,8.68c-31.359,39.584 -60.656,69.597 -104.167,95.486l-17.361,-17.361l20.573,-16.797l26.627,-21.723l26.541,-21.679c15.647,-12.826 15.647,-12.826 30.426,-26.606" style="fill:#e4d9a7;fill-rule:nonzero;"/><path d="M18185.8,15017.4l26.042,8.681l-60.764,121.528l-8.681,-0c-2.43,-25.044 -3.103,-45.248 7.422,-68.468c8.724,-15.018 17.99,-29.71 27.3,-44.38l8.681,-17.361Z" style="fill:#cca213;fill-rule:nonzero;"/><path d="M2473.96,9192.71l8.681,0c7.292,37.696 12.37,65.474 1.519,102.648c-8.485,21.05 -17.687,41.819 -27.561,62.283c-9.765,-25.065 -7.986,-39.366 -3.819,-66.602c2.452,-11.805 4.991,-23.611 7.617,-35.395l3.885,-18.337c3.168,-14.887 6.401,-29.731 9.678,-44.597" style="fill:#dfcd86;fill-rule:nonzero;"/><path d="M2083.33,7491.32l17.361,17.361l0,34.722l-26.041,-0l1.627,23.329c-1.627,28.754 -1.627,28.754 -14.648,53.711l-13.021,18.446l-17.361,-8.681l52.083,-138.888Zm7604.17,12196.2l0,8.681l52.083,8.68l0,8.681c-61.61,0.933 -121.18,-0.521 -182.291,-8.681l-0,-8.68c43.055,-11.48 86.024,-9.462 130.208,-8.681m8993.06,-2890.62c-23.264,15.517 -43.664,25.456 -69.445,35.807l-22.786,9.289c-20.617,6.987 -20.617,6.987 -46.658,6.987l-0,-17.361c90.06,-39.865 90.06,-39.865 138.889,-34.722m-5138.89,-15546.9l-0,17.361l-60.764,0l-8.681,17.361c-26.172,8.724 -43.771,9.571 -71.072,9.223l-23.698,-0.238l-18.077,-0.304l-0,-8.681c25.499,-5.816 50.998,-11.61 76.497,-17.361l21.919,-5.013l21.115,-4.752l19.423,-4.406c17.296,-3.19 17.296,-3.19 43.338,-3.19" style="fill:#cca213;fill-rule:nonzero;"/><path d="M5243.06,4626.74l-0,26.042c-23.438,26.042 -47.961,51.345 -78.125,69.444l-26.042,-8.68l104.167,-86.806Z" style="fill:#e4d9a7;fill-rule:nonzero;"/><path d="M7022.57,19088.5l78.125,-0l8.681,26.041l26.042,0l-0,17.362c-42.079,-5.122 -74.718,-17.188 -112.848,-34.723l0,-8.68Zm11892.4,-10711.8c13.498,25.456 23.415,50.651 32.009,78.125l7.162,22.244c4.231,21.159 4.231,21.159 0.607,41.233l-5.056,14.648l-17.361,-17.361c-5.491,-21.05 -5.491,-21.05 -9.766,-46.115l-4.405,-24.848c-2.995,-23.004 -3.776,-44.792 -3.19,-67.926" style="fill:#cca213;fill-rule:nonzero;"/><path d="M3532.99,6571.18l8.681,-0c2.17,18.988 2.17,18.988 -0,43.402c-16.276,22.787 -16.276,22.787 -34.723,43.403l-17.361,26.042l-17.361,-0c14.106,-41.016 35.677,-77.626 60.764,-112.847m5789.93,10260.4l17.361,8.681c-10.547,11.697 -21.224,23.264 -32.01,34.722l-18.012,19.531l-19.423,15.191c-24.045,2.17 -24.045,2.17 -43.402,0c28.906,-31.206 60.677,-54.036 95.486,-78.125" style="fill:#e4d9a7;fill-rule:nonzero;"/><path d="M18289.9,14843.8l17.361,8.681l-60.764,112.847l-8.681,-0c-2.626,-29.666 0.478,-44.488 13.021,-72.157l13.021,-23.329l17.361,-0l8.681,-26.042Zm-15928.8,-78.125l34.722,8.681l8.138,29.839c6.012,29.08 6.012,29.08 17.904,39.605c0.347,14.453 0.369,28.95 -0,43.403c-26.128,-31.337 -44.813,-66.754 -60.764,-104.167l0,-17.361Zm16024.3,-112.847l17.361,8.68l-60.764,121.528l-8.681,-34.722c6.749,-20.486 6.749,-20.486 16.819,-41.233l10.004,-21.028l7.9,-15.864l17.361,-0l-0,-17.361Zm720.486,-5468.75l8.68,-0c10.677,52.669 19.749,102.43 17.361,156.25c-12.912,-8.854 -12.912,-8.854 -26.041,-26.042c-1.91,-22.2 -2.452,-44.444 -1.628,-66.732l0.347,-18.467c0.304,-15.018 0.782,-30.013 1.281,-45.009m-347.222,-1293.4c16.536,24.783 23.394,42.795 31.467,71.072l6.857,23.698l5.078,18.077l-26.041,0c-12.609,-39.388 -19.401,-71.007 -17.361,-112.847" style="fill:#cca213;fill-rule:nonzero;"/><path d="M3888.89,6050.35l17.361,0c-3.711,20.66 -8.203,34.05 -20.312,51.411l-13.868,15.864l-13.802,16.145l-12.782,12.066l-17.361,0c15.408,-34.917 35.655,-66.731 60.764,-95.486m1102.43,-1206.6l26.042,8.681c-9.288,10.416 -18.685,20.724 -28.212,30.924l-15.863,17.383l-16.689,12.457c-19.401,-2.474 -19.401,-2.474 -34.722,-8.681c10.938,-10.417 21.984,-20.703 33.095,-30.924l18.619,-17.383l17.73,-12.457Z" style="fill:#e4d9a7;fill-rule:nonzero;"/><path d="M15685.8,3697.92c26.389,12.239 48.568,26.823 71.614,44.488l18.577,14.171l13.976,10.785l-34.723,8.681l0,-26.042l-43.402,-8.68l-0,-17.362l-26.042,0l-0,-26.041Zm-8090.28,15599c50.412,-2.452 91.493,10.243 138.889,26.042l0,17.361c-49.045,-5.208 -92.556,-18.012 -138.889,-34.722l0,-8.681Zm-5303.82,-12283l8.68,-0c1.932,32.921 2.713,55.23 -11.936,85.178c-14.105,18.989 -14.105,18.989 -31.467,36.35l-8.68,-26.042c8.637,-23.437 8.637,-23.437 21.159,-49.371l12.435,-26.15l9.809,-19.965Zm14045.1,-2786.46c9.787,8.094 19.553,16.232 29.296,24.414l16.472,13.737c14.995,13.932 14.995,13.932 32.357,39.974l-43.403,-0c-27.127,-45.769 -27.127,-45.769 -34.722,-60.764l-0,-17.361Z" style="fill:#cca213;fill-rule:nonzero;"/><path d="M9114.58,5729.17l17.361,8.68c-19.531,22.244 -19.531,22.244 -43.402,43.403c-20.074,-1.628 -20.074,-1.628 -34.723,-8.68l0,17.361l-34.722,-8.681c15.517,-8.941 31.055,-17.795 46.658,-26.584l26.237,-14.952l22.591,-10.547Z" style="fill:#e4d9a7;fill-rule:nonzero;"/><path d="M16475.7,4357.64c9.788,8.095 19.553,16.233 29.297,24.414l16.472,13.737c14.995,13.932 14.995,13.932 32.356,39.974l-26.041,-0l-26.042,-17.361l0,-26.042l-26.042,0l0,-34.722Zm-10737.8,14088.5c12.5,2.474 24.979,5.013 37.435,7.595l21.05,4.275c19.64,5.491 19.64,5.491 45.682,22.852l-8.681,26.042l-95.486,-52.084l0,-8.68Zm12743.1,-11258.7c29.774,32.596 39.627,71.484 52.083,112.847l-26.042,-8.68c-9.765,-21.702 -9.765,-21.702 -17.361,-43.403l-8.68,-8.681c-0.347,-17.361 -0.369,-34.722 -0,-52.083m477.43,1345.49c14.67,29.34 21.333,48.872 27.127,80.295l4.405,23.46l3.191,17.773l-17.362,-0l0,-34.722l-17.361,-0l0,-86.806Zm-156.25,-529.514c34.723,68.707 34.723,68.707 34.723,104.167l-26.042,-0c-8.333,-25.022 -9.592,-40.799 -9.223,-66.732l0.239,-21.267l0.303,-16.168Zm-2100.69,-3420.14c9.787,8.095 19.553,16.233 29.297,24.414l16.471,13.737c14.996,13.933 14.996,13.933 32.357,39.974l-26.042,0l0,-17.361l-21.159,-5.968l-22.244,-11.393c-7.053,-22.786 -7.053,-22.786 -8.68,-43.403m-10885.4,0l17.361,8.681c-9.31,11.458 -18.728,22.852 -28.211,34.18l-15.864,19.227c-16.689,16.037 -16.689,16.037 -36.09,22.591l-15.321,2.127c8.117,-9.592 16.255,-19.184 24.414,-28.754l13.737,-16.168c12.804,-14.475 26.129,-28.429 39.974,-41.884" style="fill:#cca213;fill-rule:nonzero;"/><path d="M8663.19,2986.11l-26.041,0l-8.681,26.042l-26.041,8.68l-0,-17.361l-78.125,8.681c23.958,-15.972 37.304,-21.55 64.561,-27.669c9.918,-2.344 9.918,-2.344 20.031,-4.71c20.703,-2.474 34.592,0 54.296,6.337" style="fill:#e4d9a7;fill-rule:nonzero;"/><path d="M8272.57,19487.8c15.191,-0.477 30.382,-0.803 45.573,-1.085l25.63,-0.607c24.457,1.692 38.259,6.51 59.006,19.053c-47.396,12.153 -84.137,3.711 -130.209,-8.68l0,-8.681Zm-4548.61,-2708.33l34.723,8.681l-0,17.361l34.722,-0l8.68,34.722l-26.041,-0c-13.933,-13.281 -13.933,-13.281 -27.67,-30.382l-13.932,-17.101l-10.482,-13.281Z" style="fill:#cca213;fill-rule:nonzero;"/><path d="M3932.29,11189.2l8.68,0l8.681,121.528l-17.361,-0l-8.681,34.722l8.681,-156.25Z" style="fill:#dfcd86;fill-rule:nonzero;"/><path d="M6918.4,19045.1c12.673,0.998 25.325,2.105 37.977,3.255l21.354,1.823l18.794,3.603l17.361,17.361l-0,17.361c-12.674,-3.906 -25.326,-7.9 -37.978,-11.936l-21.354,-6.706c-18.793,-7.4 -18.793,-7.4 -36.154,-24.761" style="fill:#cca213;fill-rule:nonzero;"/><path d="M6657.99,5755.21c-13.52,15.56 -23.481,25.044 -42.86,32.553c-19.879,2.408 -33.681,-0.413 -52.626,-6.511c33.485,-18.685 56.858,-29.449 95.486,-26.042m2421.88,11241.3l17.361,8.68c-18.446,21.159 -18.446,21.159 -43.403,43.403c-28.754,7.053 -28.754,7.053 -52.083,8.681c23.828,-25.586 46.723,-45.074 78.125,-60.764" style="fill:#e4d9a7;fill-rule:nonzero;"/><path d="M19218.8,16571.2l26.042,-0l-8.681,26.041c-19.835,8.247 -19.835,8.247 -43.945,14.649l-24.176,6.619l-18.684,4.774l-8.681,-17.361l78.125,-26.042l0,-8.68Z" style="fill:#cca213;fill-rule:nonzero;"/><path d="M13116.3,16189.2l26.042,8.681l8.681,26.041l-34.723,8.681l-8.68,43.403c-5.425,-14.106 -5.425,-14.106 -8.681,-34.722c8.138,-28.212 8.138,-28.212 17.361,-52.084" style="fill:#dfcd86;fill-rule:nonzero;"/><path d="M10251.7,15902.8l8.681,26.042c-14.649,27.126 -14.649,27.126 -34.723,52.083c-18.619,5.903 -18.619,5.903 -34.722,8.68l11.09,-14.583l14.409,-19.054l14.345,-18.923c12.587,-16.407 12.587,-16.407 20.92,-34.245" style="fill:#e4d9a7;fill-rule:nonzero;"/><path d="M2065.97,14088.5l26.042,8.68c13.954,27.908 9.18,55.86 8.68,86.806c-15.581,-23.373 -25.499,-43.121 -34.722,-69.445l0,-26.041Z" style="fill:#cca213;fill-rule:nonzero;"/><path d="M4947.92,8793.4l17.361,26.042l-43.403,43.402l-26.042,-8.68l52.084,-60.764Zm-633.681,-3272.57l17.361,26.042l-43.403,43.403l-26.041,-8.681l52.083,-60.764Z" style="fill:#e4d9a7;fill-rule:nonzero;"/><path d="M16961.8,4861.11c10.178,8.268 20.29,16.58 30.381,24.957l17.101,14.041l13.281,13.086l0,17.361l-26.041,-0c-18.989,-20.074 -18.989,-20.074 -34.722,-43.403l-0,-26.042Z" style="fill:#cca213;fill-rule:nonzero;"/><path d="M9713.54,2821.18l104.166,-0l0,17.361c-17.361,8.68 -17.361,8.68 -42.317,10.85l-27.127,-2.17l-34.722,-26.041Z" style="fill:#e4d9a7;fill-rule:nonzero;"/><path d="M12265.6,2126.74l112.847,17.361l0,8.681l-104.166,-0l-8.681,-26.042Zm-5000,17057.3c46.636,-2.3 46.636,-2.3 69.444,-0c17.362,13.021 17.362,13.021 26.042,26.042l-17.361,8.68c-18.793,-4.861 -18.793,-4.861 -40.148,-12.478l-21.506,-7.574l-16.471,-5.99l0,-8.68Zm9800.35,-1883.68l95.486,0l0,8.681c-12.283,3.168 -24.566,6.228 -36.892,9.223l-20.747,5.187c-21.397,3.081 -34.852,0.954 -55.208,-5.73l17.361,0l0,-17.361Z" style="fill:#cca213;fill-rule:nonzero;"/><path d="M9461.81,16727.4l17.361,8.68c-14.649,21.159 -14.649,21.159 -34.723,43.403c-23.871,7.053 -23.871,7.053 -43.402,8.681l60.764,-60.764Zm486.111,-468.75l34.722,8.68l-60.764,52.084l-0,-26.042c13.021,-18.989 13.021,-18.989 26.042,-34.722" style="fill:#e4d9a7;fill-rule:nonzero;"/><path d="M1883.68,13559l17.361,17.361c3.602,20.681 3.602,20.681 5.425,44.488l1.975,23.936l1.28,18.382c-17.361,-17.362 -17.361,-17.362 -23.155,-35.851l-4.514,-21.116l-4.709,-21.18l-2.344,-17.34l8.681,-8.68Z" style="fill:#cca213;fill-rule:nonzero;"/><path d="M9444.44,5217.01l26.042,17.361l-8.68,43.403l-26.042,8.68l-8.681,26.042c5.209,-31.966 10.829,-63.759 17.361,-95.486m-3993.06,-755.208l-0,26.041c-15.734,18.989 -15.734,18.989 -34.722,34.723l-26.042,-0l8.681,-26.042c16.97,-12.153 34.331,-23.741 52.083,-34.722m3385.42,-52.084l69.444,8.681l0,17.361l26.042,8.681c-64.497,-8.681 -64.497,-8.681 -95.486,-17.362l-0,-17.361Zm-2829.86,-338.541l26.042,8.68c-22.092,17.361 -43.099,33.203 -69.444,43.403l-26.042,-8.681l17.361,0l0,-17.361c24.414,-13.563 24.414,-13.563 52.083,-26.041" style="fill:#e4d9a7;fill-rule:nonzero;"/><path d="M15217,3368.06c29.297,10.286 49.023,19.748 69.444,43.402l-26.041,8.681c-23.329,-8.138 -23.329,-8.138 -43.403,-17.361l-0,-34.722Zm-2421.88,-1944.44c-26.042,17.361 -26.042,17.361 -47.57,19.054l-23.502,-0.608l-23.698,-0.477l-18.077,-0.608c38.758,-20.117 69.922,-31.662 112.847,-17.361m-6232.64,17465.3c46.636,3.06 46.636,3.06 69.444,8.681c17.362,17.903 17.362,17.903 26.042,34.722c-37.391,-9.354 -66.276,-17.709 -95.486,-43.403m8081.6,-277.778l34.722,8.681c-11.176,7.27 -22.395,14.518 -33.637,21.701l-18.923,12.196c-16.884,9.506 -16.884,9.506 -34.245,9.506l-0,-26.042l52.083,-8.681l0,-17.361Z" style="fill:#cca213;fill-rule:nonzero;"/><path d="M4895.83,4930.56l26.042,8.68l-60.764,52.084l0,-26.042c17.361,-18.989 17.361,-18.989 34.722,-34.722" style="fill:#e4d9a7;fill-rule:nonzero;"/><path d="M15520.8,3576.39c29.818,13.26 53.125,31.25 78.125,52.083l-60.764,-8.68l-17.361,-43.403Zm-7473.96,-1345.49c-28.342,16.601 -52.04,20.464 -84.635,22.786l-25.912,1.975l-19.661,1.281c22.439,-14.974 35.047,-21.246 60.221,-27.67l17.6,-4.709c19.813,-2.626 33.463,0.369 52.387,6.337m-3194.44,15599l43.402,8.681l8.681,26.041l17.361,8.681l-26.042,-0c-23.329,-21.701 -23.329,-21.701 -43.402,-43.403m-2873.26,-3958.33l26.041,-0l8.681,69.444l-17.361,0l-17.361,-69.444Z" style="fill:#cca213;fill-rule:nonzero;"/><path d="M5407.99,8385.42l0,26.041c-10.851,15.191 -10.851,15.191 -26.042,26.042l-34.722,-8.68l60.764,-43.403Z" style="fill:#e4d9a7;fill-rule:nonzero;"/><path d="M14817.7,18506.9c27.67,-1.628 27.67,-1.628 52.084,-0c-24.762,20.182 -48.091,32.552 -78.125,43.402l-0,-17.361c9.765,-14.106 9.765,-14.106 26.041,-26.041" style="fill:#cca213;fill-rule:nonzero;"/><path d="M6927.08,18116.3l52.084,-0l8.68,26.041c17.492,6.359 17.492,6.359 34.722,8.681l-17.361,8.68c-18.793,-6.749 -18.793,-6.749 -40.147,-16.818l-21.506,-10.005l-16.472,-7.899l0,-8.68Z" style="fill:#e4d9a7;fill-rule:nonzero;"/><path d="M4539.93,17578.1l43.402,0l0,17.361l17.361,0l-8.68,34.722c-17.535,-14.257 -34.896,-28.732 -52.083,-43.402l-0,-8.681Z" style="fill:#cca213;fill-rule:nonzero;"/><path d="M5868.06,17500l52.083,0l-17.361,8.681l-0,17.361l17.361,8.68l-17.361,8.681c-17.361,-11.936 -17.361,-11.936 -34.722,-26.042l-0,-17.361Z" style="fill:#e4d9a7;fill-rule:nonzero;"/><path d="M18932.3,16675.3l69.444,0c-27.669,18.446 -45.703,21.723 -78.125,26.042l8.681,-26.042Zm-17092,-8506.94l8.68,-0l0,78.125l-17.361,-0l-8.68,17.361c8.68,-64.497 8.68,-64.497 17.361,-95.486" style="fill:#cca213;fill-rule:nonzero;"/><path d="M2994.79,7578.12l17.361,26.042c-5.968,22.786 -5.968,22.786 -17.361,43.403l-26.042,8.68l26.042,-78.125Z" style="fill:#e4d9a7;fill-rule:nonzero;"/><path d="M2473.96,6657.99c5.426,15.191 5.426,15.191 8.681,34.722c-6.511,18.989 -6.511,18.989 -17.361,34.723l-26.042,8.68c10.417,-26.758 21.506,-52.626 34.722,-78.125" style="fill:#cca213;fill-rule:nonzero;"/><path d="M4175.35,5685.76l17.361,26.042l-43.402,34.722l-8.681,-17.361l34.722,-43.403Zm208.334,-243.056l17.361,26.042l-52.084,43.403l0,-26.042c17.361,-23.329 17.361,-23.329 34.723,-43.403" style="fill:#e4d9a7;fill-rule:nonzero;"/><path d="M8515.62,19531.2l60.764,8.681l-0,17.361l-69.445,-8.681l8.681,-17.361Zm-4409.72,-2352.43l43.403,8.68l8.68,34.722c-16.276,-7.053 -16.276,-7.053 -34.722,-17.361l-17.361,-26.041Z" style="fill:#cca213;fill-rule:nonzero;"/><path d="M9583.33,16623.3l17.361,8.681l-43.402,52.083l-26.042,-17.361l52.083,-43.403Z" style="fill:#e4d9a7;fill-rule:nonzero;"/><path d="M18619.8,14105.9l17.361,-0l-26.042,78.125l-8.68,-0c5.946,-53.407 5.946,-53.407 8.68,-69.445l8.681,-8.68Zm-277.778,-2387.15l8.68,0c6.793,33.984 9.744,56.858 0.543,90.603l-9.223,22.244l-8.681,0c-0.672,-39.192 -0.889,-74.566 8.681,-112.847" style="fill:#cca213;fill-rule:nonzero;"/><path d="M17899.3,8098.96l17.361,0l26.041,78.125l-17.361,-8.68l0,-26.042l-17.361,0l-8.68,-43.403Zm-13289.9,-2890.62l8.681,17.362l-34.723,43.402l-26.041,-8.68l52.083,-52.084Z" style="fill:#e4d9a7;fill-rule:nonzero;"/><path d="M3437.5,5199.65l8.681,34.722c-16.819,19.531 -16.819,19.531 -34.723,34.722l-17.361,-8.68l43.403,-60.764Zm13428.8,-442.708l52.084,43.402l-34.722,8.681l-17.362,-26.042l0,-26.041Zm-616.319,-598.959c14.692,8.29 29.167,17.014 43.403,26.042l8.68,17.361l-52.083,-8.681l0,-34.722Zm-3793.4,-2673.61c18.446,3.255 18.446,3.255 34.722,8.681l-17.361,-0l0,17.361l-26.041,8.68l-8.681,17.361l-17.361,0c10.004,-21.419 17.773,-35.134 34.722,-52.083m105.794,-22.244l15.734,4.883l-26.042,17.361c-20.247,0.695 -40.516,0.76 -60.764,0c42.058,-28.038 42.058,-28.038 71.072,-22.244m-5904.4,17470.2l69.445,8.68l-0,26.042c-49.914,-15.191 -49.914,-15.191 -69.445,-34.722m-3776.04,-3272.57l8.681,26.042l26.042,-0l-0,43.403c-21.919,-20.508 -33.746,-31.814 -43.403,-60.764l8.68,-8.681Zm15251.7,-2812.5l8.68,0c2.3,46.637 2.3,46.637 0,69.445c-13.021,17.361 -13.021,17.361 -26.042,26.041c5.209,-31.966 10.829,-63.758 17.362,-95.486m-15572.9,-6354.17l17.361,34.722l-26.042,8.68l0,26.042l-17.361,0c16.276,-49.913 16.276,-49.913 26.042,-69.444m373.264,-607.639l8.68,34.722c-16.818,19.531 -16.818,19.531 -34.722,34.722l-17.361,-8.68l43.403,-60.764Z" style="fill:#cca213;fill-rule:nonzero;"/><path d="M9175.35,5685.76l17.361,8.681l-43.402,43.402l-17.362,-17.361l43.403,-34.722Z" style="fill:#e4d9a7;fill-rule:nonzero;"/><path d="M3802.08,4782.99l8.681,34.722l-52.083,26.042c11.219,-25.043 23.09,-42.296 43.402,-60.764m11536.5,-1336.81c46.614,25.434 46.614,25.434 60.764,34.722l8.68,17.361l-43.403,-8.681l-8.68,-26.041l-17.361,-0l-0,-17.361Zm885.416,14053.8l26.042,8.681l-52.083,43.402c3.255,-21.158 3.255,-21.158 8.68,-43.402l17.361,-8.681Zm-13967,-2986.11l17.362,17.361c3.472,20.161 6.423,40.43 8.68,60.764c-16.428,-20.703 -26.259,-35.352 -34.722,-60.764l8.68,-17.361Z" style="fill:#cca213;fill-rule:nonzero;"/><path d="M5564.24,8272.57l17.361,-0c-7.595,16.818 -7.595,16.818 -17.361,34.722l-17.361,8.68l-17.361,-17.361c11.306,-9.028 22.895,-17.708 34.722,-26.041m43.403,-3932.29l8.68,26.042l-34.722,26.041l-17.361,-17.361l43.403,-34.722Zm598.958,-399.306l17.361,8.681c-15.191,17.904 -15.191,17.904 -34.722,34.722c-19.531,-2.17 -19.531,-2.17 -34.722,-8.68l52.083,-34.723Zm1006.95,-512.152l17.361,8.68l-34.722,8.681l-0,17.361l-26.042,8.68l-17.361,-17.361c20.008,-9.245 40.256,-17.925 60.764,-26.041m190.972,-78.125l17.361,8.68l-34.722,8.681l-0,17.361l-26.042,8.68l-17.361,-17.361c20.009,-9.245 40.256,-17.925 60.764,-26.041" style="fill:#e4d9a7;fill-rule:nonzero;"/><path d="M6744.79,2673.61l17.361,8.681l-34.722,8.68l-0,17.361l-26.042,8.681l-17.361,-17.361c20.008,-9.245 40.256,-17.925 60.764,-26.042m581.597,-234.375l17.361,8.681l-69.444,34.722l-17.362,-17.361c11.177,-4.601 22.396,-9.115 33.638,-13.563l18.923,-7.639l16.884,-4.84Zm6041.67,15850.7l17.361,8.68c-15.191,13.564 -15.191,13.564 -34.723,26.042c-19.531,-2.713 -19.531,-2.713 -34.722,-8.681c17.079,-9.266 34.44,-17.947 52.084,-26.041m2352.43,-381.945c17.904,3.798 17.904,3.798 34.722,8.681l-52.083,34.722c2.648,-11.632 5.534,-23.199 8.681,-34.722l8.68,-8.681Zm-10928.8,-121.528l34.722,0l-0,17.362l26.042,-0l-8.681,26.041c-17.535,-11.328 -34.896,-22.895 -52.083,-34.722l-0,-8.681Zm-2569.45,-10616.3c5.426,15.191 5.426,15.191 8.681,34.722c-8.138,19.531 -8.138,19.531 -17.361,34.722l-17.361,0c16.276,-49.913 16.276,-49.913 26.041,-69.444" style="fill:#cca213;fill-rule:nonzero;"/><path d="M3307.29,6953.12c5.425,15.734 5.425,15.734 8.68,34.722l-17.361,26.042l-17.361,-0c16.276,-41.233 16.276,-41.233 26.042,-60.764" style="fill:#e4d9a7;fill-rule:nonzero;"/><path d="M3480.9,5147.57c4.883,16.276 4.883,16.276 8.68,34.722l-8.68,17.361l-34.722,-8.681l34.722,-43.402Zm13437.5,-338.542l43.403,43.403l-26.042,8.68l-0,-17.361l-17.361,0l-0,-34.722Zm-138.889,-147.57l43.403,34.723l-8.681,17.361l-26.042,-8.681l-8.68,-43.403Zm-1371.53,-1163.19c21.419,10.004 35.135,17.773 52.083,34.722l-43.402,0l-8.681,-34.722Z" style="fill:#cca213;fill-rule:nonzero;"/><path d="M8680.56,17213.5l26.041,-0l0,17.361l-60.764,8.68c15.734,-13.02 15.734,-13.02 34.723,-26.041" style="fill:#e4d9a7;fill-rule:nonzero;"/><path d="M18211.8,14965.3l26.041,-0c-3.255,16.276 -3.255,16.276 -8.68,34.722l-17.361,17.361l-0,-52.083Z" style="fill:#cca213;fill-rule:nonzero;"/><path d="M4375,9644.1l17.361,34.723l-34.722,17.361l17.361,-52.084Z" style="fill:#e4d9a7;fill-rule:nonzero;"/><path d="M18255.2,9357.64l8.681,-0l8.68,78.125l-8.68,-17.361l-17.361,-0l8.68,-60.764Z" style="fill:#dfcd86;fill-rule:nonzero;"/><path d="M4592.01,9262.15l17.361,26.042l-43.403,26.041c16.276,-42.318 16.276,-42.318 26.042,-52.083m-2100.7,-112.847l26.042,8.68l0,34.722l-26.042,-8.68l0,-34.722Zm763.889,-2100.7l8.681,17.361c-2.409,14.562 -5.295,29.037 -8.681,43.403l-26.041,0c16.276,-50.998 16.276,-50.998 26.041,-60.764m2881.95,-3064.24l26.041,8.681l-8.68,17.361c-26.584,5.425 -26.584,5.425 -52.083,8.68l34.722,-34.722Z" style="fill:#e4d9a7;fill-rule:nonzero;"/><path d="M15460.1,3532.99c21.42,10.005 35.135,17.774 52.084,34.722l-52.084,-8.68l0,-26.042Zm-173.611,-121.528l52.084,26.042l-0,8.681l-43.403,-0l-8.681,-34.723Zm-1657.99,15677.1l52.084,-0c-11.307,9.028 -22.895,17.708 -34.723,26.041l-17.361,0l0,-26.041Zm-9557.29,-1944.44c21.158,3.256 21.158,3.256 43.402,8.681l8.681,17.361l-26.042,8.681l-26.041,-34.723Zm14349,-269.097l52.083,0c-22.743,15.148 -35.048,20.725 -60.764,26.042l8.681,-26.042Z" style="fill:#cca213;fill-rule:nonzero;"/><path d="M10312.5,15824.7l17.361,26.042l-17.361,17.361l-26.042,-8.681l26.042,-34.722Z" style="fill:#e4d9a7;fill-rule:nonzero;"/><path d="M18437.5,15138.9l26.042,8.681l8.68,43.402c-11.936,-11.219 -23.502,-22.786 -34.722,-34.722l0,-17.361Zm-16284.7,-824.653l26.041,0l0,52.084c-9.027,-11.307 -17.708,-22.895 -26.041,-34.723l-0,-17.361Z" style="fill:#cca213;fill-rule:nonzero;"/><path d="M4487.85,14236.1l34.722,17.361l-8.68,34.723c-9.028,-11.307 -17.708,-22.895 -26.042,-34.723l0,-17.361Z" style="fill:#e4d9a7;fill-rule:nonzero;"/><path d="M17942.7,13489.6l17.361,26.042l-34.722,34.722l17.361,-60.764Z" style="fill:#cca213;fill-rule:nonzero;"/><path d="M18159.7,12691l17.361,0l-8.68,52.084l-17.361,-17.361c3.255,-18.447 3.255,-18.447 8.68,-34.723m-13480.9,-3559.03l8.681,17.361c-8.138,18.446 -8.138,18.446 -17.361,34.722l-17.361,-0c16.276,-42.318 16.276,-42.318 26.041,-52.083m-1562.5,-1814.24l17.362,26.042l-17.362,26.042l-17.361,-0l17.361,-52.084Z" style="fill:#e4d9a7;fill-rule:nonzero;"/><path d="M2743.06,6189.24l8.68,17.361c-3.798,18.446 -3.798,18.446 -8.68,34.723l-26.042,-0c16.276,-42.318 16.276,-42.318 26.042,-52.084m95.486,-156.25l8.68,34.722l-34.722,17.362l26.042,-52.084Z" style="fill:#cca213;fill-rule:nonzero;"/><path d="M3923.61,6006.94l26.042,8.68l-26.042,26.042l-26.042,-8.681l26.042,-26.041Z" style="fill:#e4d9a7;fill-rule:nonzero;"/><path d="M2994.79,5789.93c4.882,16.276 4.882,16.276 8.68,34.722l-8.68,17.361l-26.042,-8.681l26.042,-43.402Z" style="fill:#cca213;fill-rule:nonzero;"/><path d="M6744.79,4583.33l26.041,0l0,17.362l26.042,8.68l-17.361,17.361l-34.722,-43.403Z" style="fill:#e4d9a7;fill-rule:nonzero;"/><path d="M12873.3,1388.89l43.403,-0l-0,17.361l-34.723,8.681l-8.68,-26.042Zm-6545.14,17369.8l26.042,8.68l8.68,26.042l-43.403,-17.361l8.681,-17.361Zm-720.486,-407.986l26.042,8.68c5.967,17.904 5.967,17.904 8.68,34.722l-43.403,-34.722l8.681,-8.68Zm-468.75,-321.181l17.361,8.681l-0,17.361l17.361,-0l-8.68,17.361l-43.403,-34.722l17.361,-8.681Zm-2795.14,-3307.29l26.042,8.681l-8.681,34.722l-17.361,-17.361l0,-26.042Zm16224,-486.111l17.361,0l-17.361,52.084l-8.68,-0c-0.369,-14.475 -0.369,-28.928 -0,-43.403l8.68,-8.681Zm-16154.5,-7465.28l8.681,0l0,43.403l-26.042,8.681l17.361,-52.084Zm468.75,-807.291l8.681,-0l0,43.403l-26.042,-0l17.361,-43.403Zm13125,-2013.89l34.723,17.361l-17.361,26.042l-17.362,-43.403Zm2552.08,12873.3l26.041,8.68l-17.361,17.361l-26.041,0l-0,-17.361l17.361,-8.68Zm-14913.2,-130.209l43.403,8.681l-8.68,26.042l-34.723,-34.723Z" style="fill:#cca213;fill-rule:nonzero;"/><path d="M3463.54,6684.03l8.68,34.722l-26.041,8.681l17.361,-43.403Zm503.472,-737.847l17.361,26.041l-26.042,17.361l-8.68,-17.361l17.361,-26.041Zm2942.71,-486.111l8.681,34.722l-26.042,8.68l17.361,-43.402Z" style="fill:#e4d9a7;fill-rule:nonzero;"/><path d="M17187.5,5121.53l34.722,34.722l-34.722,0l0,-34.722Zm-13611.1,-86.806l8.68,26.042l-34.722,17.361l26.042,-43.403Z" style="fill:#cca213;fill-rule:nonzero;"/><path d="M5451.39,4461.81l-0,26.041l-34.722,8.681l34.722,-34.722Z" style="fill:#e4d9a7;fill-rule:nonzero;"/><path d="M14956.6,3203.12l43.403,17.361l0,8.681l-43.403,-0l0,-26.042Zm-43.403,-26.042l43.403,17.362l0,8.68l-43.403,0l0,-26.042Zm-130.208,-78.125l43.403,17.362l-0,8.68l-43.403,0l0,-26.042Zm-138.889,-78.125l43.403,17.362l0,8.68l-43.403,0l0,-26.042Zm-1623.26,15399.3c18.447,3.798 18.447,3.798 34.723,8.681l-34.723,17.361l-17.361,-17.361l17.361,-8.681Zm-7942.71,-416.667l43.403,8.681l-8.681,17.361l-34.722,-17.361l0,-8.681Z" style="fill:#cca213;fill-rule:nonzero;"/><path d="M9201.39,16918.4l17.361,-0l-8.681,26.042l-34.722,-8.681l26.042,-17.361Z" style="fill:#e4d9a7;fill-rule:nonzero;"/><path d="M3385.42,16371.5l26.041,-0l-8.68,34.722l-17.361,-34.722Z" style="fill:#cca213;fill-rule:nonzero;"/><path d="M5164.93,15078.1l43.402,17.361l-17.361,17.361l-26.041,-34.722Zm-590.278,-703.125l34.722,17.361l-17.361,26.042l-17.361,-43.403Zm1631.94,-6414.93l0,17.361l-26.041,8.68l-17.362,-17.361c17.362,-8.68 17.362,-8.68 43.403,-8.68" style="fill:#e4d9a7;fill-rule:nonzero;"/><path d="M2326.39,6944.44l17.361,34.722l-26.042,-0l8.681,-34.722Z" style="fill:#cca213;fill-rule:nonzero;"/><path d="M9114.58,6553.82l34.723,8.68l-0,17.361l-34.723,-8.68l0,-17.361Z" style="fill:#e4d9a7;fill-rule:nonzero;"/><path d="M2960.07,5842.01l17.362,26.042l-34.723,17.361l17.361,-43.403Z" style="fill:#cca213;fill-rule:nonzero;"/><path d="M4175.35,5685.76l8.681,26.042l-34.722,8.68l26.041,-34.722Z" style="fill:#e4d9a7;fill-rule:nonzero;"/><path d="M3072.92,5685.76l17.361,8.681l-0,17.361l-34.722,8.68l17.361,-34.722Z" style="fill:#cca213;fill-rule:nonzero;"/><path d="M6770.83,5642.36l8.681,26.042l-34.722,8.68l26.041,-34.722Zm-989.583,-1423.61l17.361,8.681l-26.042,26.041l-17.361,-17.361l26.042,-17.361Z" style="fill:#e4d9a7;fill-rule:nonzero;"/><path d="M15789.9,3776.04l34.722,17.361l-34.722,8.68l-0,-26.041Z" style="fill:#cca213;fill-rule:nonzero;"/><path d="M7022.57,3524.31l0,17.361l-26.041,8.68l-17.361,-17.361c17.361,-8.68 17.361,-8.68 43.402,-8.68" style="fill:#e4d9a7;fill-rule:nonzero;"/><path d="M8012.15,2222.22c18.446,3.798 18.446,3.798 34.722,8.681l-34.722,17.361l-17.361,-17.361l17.361,-8.681Zm11111.1,13906.2l26.042,34.723l-26.042,-0l-0,-34.723Z" style="fill:#cca213;fill-rule:nonzero;"/><path d="M4218.75,13663.2l26.042,-0l-17.361,34.722l-8.681,-34.722Zm425.347,-4479.17l8.681,26.042l-26.042,8.68l17.361,-34.722Zm1276.04,-1111.11l17.361,-0l-8.681,26.041l-26.041,-8.68l17.361,-17.361Zm-2343.75,-1571.18l17.361,26.042l-17.361,17.361c-4.883,-16.819 -4.883,-16.819 -8.681,-34.722l8.681,-8.681Zm407.986,-581.597l17.361,26.042l-26.042,-0l8.681,-26.042Zm1657.99,-1605.9l17.361,0l-8.68,26.042l-26.042,-8.681l17.361,-17.361Z" style="fill:#e4d9a7;fill-rule:nonzero;"/><path d="M4774.31,3871.53l17.361,8.68l-26.042,26.042l0,-26.042l8.681,-8.68Zm1935.76,15069.4l26.042,8.681l-8.68,17.361l-17.362,-0l0,-26.042Zm9175.35,-1163.19l26.041,17.361l-34.722,-0l8.681,-17.361Z" style="fill:#cca213;fill-rule:nonzero;"/><path d="M10894.1,16822.9l26.042,26.041l-26.042,0l0,-26.041Zm2560.76,-269.097l26.042,26.041l-26.042,0l0,-26.041Zm-156.25,-156.25l26.042,26.041l-26.042,0l0,-26.041Zm-8237.85,-1432.29l26.042,26.042l-26.042,-0l-0,-26.042Zm-538.195,-5590.28l17.362,26.042l-26.042,-0l8.68,-26.042Zm86.806,-138.889l17.361,26.042l-26.042,-0l8.681,-26.042Zm86.806,-130.208l17.361,26.042l-26.042,-0l8.681,-26.042Zm138.888,-182.292l17.362,26.042l-26.042,-0l8.68,-26.042Zm-1631.94,-1779.51l17.361,26.042l-26.042,8.681l8.681,-34.723Zm546.875,-902.777l17.361,26.041l-26.042,0l8.681,-26.041Zm2656.25,-2404.51l-8.681,26.041l-26.041,-17.361c17.361,-8.68 17.361,-8.68 34.722,-8.68" style="fill:#e4d9a7;fill-rule:nonzero;"/><path d="M15191,3350.7l26.042,8.68l-8.681,17.361l-17.361,0l0,-26.041Z" style="fill:#cca213;fill-rule:nonzero;"/><path d="M9817.71,14765.6l17.361,0l-8.68,26.042l-17.361,-17.361l8.68,-8.681Zm-5329.86,-529.514l26.042,8.681l-17.361,17.361l-8.681,-26.042Zm-26.041,-52.083l26.041,8.68l-17.361,17.362l-8.68,-26.042Z" style="fill:#e4d9a7;fill-rule:nonzero;"/><path d="M15000,3229.17l26.042,8.68l-17.361,17.361l-8.681,-26.041Z" style="fill:#cca213;fill-rule:nonzero;"/><path d="M9305.56,4678.82l17.361,17.361l-26.042,-0l8.681,-17.361Z" style="fill:#e4d9a7;fill-rule:nonzero;"/></svg>