<?xml version="1.0" encoding="UTF-8" standalone="no"?>
<!DOCTYPE svg PUBLIC "-//W3C//DTD SVG 1.1//EN" "http://www.w3.org/Graphics/SVG/1.1/DTD/svg11.dtd">
<svg width="100%" height="100%" viewBox="0 0 6000 6000" version="1.1" xmlns="http://www.w3.org/2000/svg" xmlns:xlink="http://www.w3.org/1999/xlink" xml:space="preserve" xmlns:serif="http://www.serif.com/" style="fill-rule:evenodd;clip-rule:evenodd;stroke-linejoin:round;stroke-miterlimit:2;">
    <g transform="matrix(50.5431,0,0,50.5431,-3652.73,-842.773)">
        <g transform="matrix(1.62473,0,0,1.62473,130.422,112.456)">
            <path d="M0,-42.7C-1.288,-42.7 -2.419,-43.159 -3.397,-44.083C-4.375,-45.006 -4.865,-46.194 -4.865,-47.649C-4.865,-49.102 -4.375,-50.29 -3.397,-51.214C-2.419,-52.137 -1.288,-52.599 0,-52.599C1.285,-52.599 2.419,-52.137 3.397,-51.214C4.375,-50.29 4.867,-49.102 4.867,-47.649C4.867,-46.194 4.375,-45.006 3.397,-44.083C2.419,-43.159 1.285,-42.7 0,-42.7M-8.556,3.355C-6.712,3.355 -5.074,3.315 -3.649,3.23C-3.453,3.219 -3.261,3.206 -3.073,3.191C-1.373,3.062 -0.082,1.631 -0.082,-0.074L-0.082,-10.233C-0.644,-10.512 -1.552,-10.749 -2.81,-10.947C-4.068,-11.141 -5.593,-11.241 -7.383,-11.241C-8.556,-11.241 -9.802,-11.156 -11.114,-10.989C-12.43,-10.822 -13.63,-10.472 -14.721,-9.941C-15.812,-9.409 -16.723,-8.683 -17.449,-7.759C-18.175,-6.836 -18.54,-5.62 -18.54,-4.11C-18.54,-1.312 -17.646,0.629 -15.854,1.72C-14.065,2.811 -11.634,3.355 -8.556,3.355M-15.939,-42.7C-17.224,-42.7 -18.358,-43.159 -19.336,-44.083C-20.314,-45.006 -20.804,-46.194 -20.804,-47.649C-20.804,-49.102 -20.314,-50.29 -19.336,-51.214C-18.358,-52.137 -17.224,-52.599 -15.939,-52.599C-14.654,-52.599 -13.52,-52.137 -12.542,-51.214C-11.564,-50.29 -11.072,-49.102 -11.072,-47.649C-11.072,-46.194 -11.564,-45.006 -12.542,-44.083C-13.52,-43.159 -14.654,-42.7 -15.939,-42.7M-9.227,-35.736C-6.095,-35.736 -3.454,-35.329 -1.3,-34.521C0.854,-33.707 2.586,-32.561 3.901,-31.081C5.214,-29.599 6.152,-27.837 6.712,-25.795C7.271,-23.753 7.55,-21.502 7.55,-19.043L7.55,8.222C6.879,8.334 5.943,8.487 4.74,8.684C3.537,8.879 2.181,9.061 0.671,9.228C-0.839,9.395 -2.473,9.55 -4.236,9.69C-5.998,9.83 -7.747,9.899 -9.48,9.899C-11.941,9.899 -14.207,9.647 -16.274,9.143C-18.343,8.641 -20.132,7.845 -21.642,6.755C-23.152,5.664 -24.328,4.224 -25.167,2.434C-26.005,0.644 -26.424,-1.51 -26.424,-4.025C-26.424,-6.429 -25.935,-8.501 -24.957,-10.233C-23.978,-11.968 -22.651,-13.365 -20.971,-14.429C-19.294,-15.489 -17.337,-16.273 -15.1,-16.777C-12.864,-17.281 -10.515,-17.533 -8.052,-17.533C-7.271,-17.533 -6.459,-17.491 -5.621,-17.406C-4.782,-17.324 -3.984,-17.209 -3.23,-17.072C-2.473,-16.929 -1.817,-16.805 -1.258,-16.692C-0.699,-16.58 -0.307,-16.498 -0.082,-16.443L-0.082,-18.622C-0.082,-19.91 -0.225,-21.183 -0.504,-22.44C-0.784,-23.698 -1.288,-24.817 -2.012,-25.795C-2.741,-26.773 -3.731,-27.557 -4.992,-28.144C-6.25,-28.73 -7.885,-29.025 -9.899,-29.025C-12.472,-29.025 -14.721,-28.843 -16.65,-28.481C-16.991,-28.416 -17.316,-28.352 -17.626,-28.286C-19.468,-27.899 -21.231,-29.165 -21.497,-31.027C-21.739,-32.722 -20.65,-34.308 -18.98,-34.685C-18.348,-34.827 -17.641,-34.968 -16.86,-35.107C-14.511,-35.527 -11.968,-35.736 -9.227,-35.736" style="fill:rgb(208,172,104);fill-rule:nonzero;"/>
        </g>
        <g transform="matrix(1.62473,0,0,1.62473,170.5,26.0238)">
            <path d="M6.05,61.216C5.279,62.27 -8.35,63.438 -10.871,61.216C-12.977,59.361 -13.891,56.212 -13.891,52.071L-13.891,0.068C-13.891,-0.13 -13.748,-0.298 -13.554,-0.332L-6.563,-1.535C-6.315,-1.578 -6.088,-1.387 -6.088,-1.135L-6.088,50.657C-6.072,53.777 -5,54.805 -3.192,55.457C-2.371,55.753 3.513,54.897 3.411,54.798L6.05,61.216Z" style="fill:rgb(208,172,104);fill-rule:nonzero;"/>
        </g>
    </g>
</svg>
